<svg xmlns="http://www.w3.org/2000/svg" xmlns:xlink="http://www.w3.org/1999/xlink" width="500" zoomAndPan="magnify" viewBox="0 0 375 374.999991" height="500" preserveAspectRatio="xMidYMid meet" version="1.0"><defs><clipPath id="be7f5a9395"><path d="M 63 22.195312 L 312 22.195312 L 312 273 L 63 273 Z M 63 22.195312 " clip-rule="nonzero"/></clipPath><clipPath id="cdd1b7c404"><path d="M 59 301 L 100 301 L 100 352.945312 L 59 352.945312 Z M 59 301 " clip-rule="nonzero"/></clipPath><clipPath id="568b1ae0d2"><path d="M 190 301 L 242 301 L 242 352.945312 L 190 352.945312 Z M 190 301 " clip-rule="nonzero"/></clipPath><clipPath id="1ae6996693"><path d="M 293 302 L 332 302 L 332 352.945312 L 293 352.945312 Z M 293 302 " clip-rule="nonzero"/></clipPath><clipPath id="44d51d6528"><path d="M 339 301 L 375 301 L 375 352.945312 L 339 352.945312 Z M 339 301 " clip-rule="nonzero"/></clipPath></defs><rect x="-37.5" width="450" fill="#ffffff" y="-37.499999" height="449.999989" fill-opacity="1"/><rect x="-37.5" width="450" fill="#ffffff" y="-37.499999" height="449.999989" fill-opacity="1"/><path fill="#f1f2f2" d="M 195.039062 103.742188 C 192.46875 103.742188 190.371094 105.839844 190.371094 108.410156 L 190.371094 117.96875 C 190.371094 120.542969 192.46875 122.640625 195.039062 122.640625 C 197.613281 122.640625 199.710938 120.542969 199.710938 117.96875 L 199.710938 108.410156 C 199.710938 105.839844 197.613281 103.742188 195.039062 103.742188 Z M 195.039062 103.742188 " fill-opacity="1" fill-rule="nonzero"/><path fill="#f1f2f2" d="M 226.394531 117.953125 L 226.394531 108.398438 C 226.394531 105.824219 224.296875 103.726562 221.726562 103.726562 C 219.152344 103.726562 217.054688 105.824219 217.054688 108.398438 L 217.054688 117.953125 C 217.054688 120.527344 219.152344 122.625 221.726562 122.625 C 224.296875 122.625 226.394531 120.527344 226.394531 117.953125 Z M 226.394531 117.953125 " fill-opacity="1" fill-rule="nonzero"/><g clip-path="url(#be7f5a9395)"><path fill="#f1f2f2" d="M 307.402344 144.941406 C 314.308594 137.757812 312.914062 126.164062 304.921875 120.648438 L 299.6875 117.066406 C 293.898438 113.207031 291.402344 105.746094 293.332031 99.113281 L 294.984375 93.050781 C 297.742188 83.660156 291.402344 73.996094 281.742188 72.339844 L 275.386719 71.238281 C 268.484375 70.136719 262.972656 64.882812 261.871094 57.988281 L 260.765625 51.632812 C 259.113281 41.96875 249.453125 35.902344 240.066406 38.660156 L 234.003906 40.589844 C 227.375 42.519531 219.933594 40.039062 216.078125 34.507812 L 212.21875 28.996094 C 206.429688 20.984375 195.117188 19.882812 187.9375 26.511719 L 183.25 30.925781 C 178.015625 35.613281 170.558594 36.714844 164.207031 33.128906 L 158.695312 30.097656 C 150.136719 25.410156 139.371094 29.269531 135.515625 38.382812 L 133.035156 44.464844 C 130.554688 51.097656 123.925781 55.230469 117.035156 54.679688 L 110.679688 54.40625 C 100.746094 53.855469 92.753906 62.140625 93.578125 71.789062 L 94.128906 78.144531 C 94.683594 85.054688 90.546875 91.671875 84.195312 94.425781 L 78.40625 96.910156 C 69.296875 100.769531 65.714844 111.535156 70.398438 120.097656 L 73.707031 125.613281 C 77.289062 131.691406 76.460938 139.414062 71.777344 144.667969 L 67.644531 149.355469 C 61.015625 156.8125 62.40625 168.132812 70.675781 173.644531 L 75.910156 177.230469 C 81.714844 181.089844 84.195312 188.550781 82.265625 195.164062 L 79.785156 201.523438 C 77.027344 210.910156 83.367188 220.578125 93.027344 222.230469 L 99.382812 223.332031 C 106.285156 224.4375 111.796875 229.691406 112.902344 236.582031 L 114.003906 242.9375 C 115.65625 252.605469 125.316406 258.667969 134.703125 255.914062 L 140.78125 253.980469 C 147.410156 252.050781 154.851562 254.535156 158.710938 260.0625 L 162.566406 265.300781 C 168.371094 273.3125 179.667969 274.414062 186.847656 267.78125 L 191.535156 263.371094 C 196.769531 258.683594 204.226562 257.582031 210.582031 261.164062 L 216.09375 264.199219 C 224.648438 268.886719 235.414062 265.027344 239.273438 255.914062 L 241.75 249.832031 C 244.230469 243.199219 250.863281 239.0625 257.75 239.613281 L 264.105469 239.890625 C 274.042969 240.441406 282.03125 232.15625 281.207031 222.507812 L 280.929688 216.148438 C 280.378906 209.242188 284.511719 202.625 290.867188 199.867188 L 296.65625 197.386719 C 305.765625 193.527344 309.347656 182.757812 304.660156 174.195312 L 301.355469 168.683594 C 297.773438 162.601562 298.597656 154.882812 303.285156 149.628906 L 307.417969 144.941406 Z M 249.421875 198.445312 C 247.019531 199.253906 246.101562 198.828125 245.304688 196.390625 C 243.113281 189.699219 238.859375 184.628906 232.535156 181.394531 C 231.21875 180.738281 229.886719 179.820312 227.757812 180.707031 C 233.972656 185.378906 238.015625 191.304688 239.824219 198.671875 C 240.34375 200.800781 240.617188 202.992188 241.261719 205.089844 C 242.488281 209.320312 244.785156 210.46875 248.855469 208.996094 C 249.542969 208.75 250.050781 208.230469 250.570312 209.058594 C 251.089844 209.929688 251.03125 210.941406 250.769531 211.875 C 250.003906 214.710938 245.425781 217.636719 241.539062 217.851562 C 237.632812 218.066406 234.386719 216.425781 231.953125 213.667969 C 228.109375 209.273438 226.257812 202.152344 222.015625 195.074219 C 220.441406 192.425781 216.75 188.519531 214.621094 186.3125 C 212.984375 184.628906 211.039062 183.3125 208.894531 182.375 C 207.777344 181.886719 206.585938 181.503906 205.375 181.195312 C 204.472656 180.984375 202.375 181.136719 201.640625 180.644531 C 202.957031 181.519531 204.011719 182.148438 204.992188 182.851562 C 214.195312 189.269531 216.535156 199.59375 211.054688 209.394531 C 209.492188 212.152344 207.808594 214.847656 206.492188 217.726562 C 205.695312 219.441406 205.34375 221.558594 207.363281 222.964844 C 209.1875 224.253906 210.75 223.347656 212.171875 222.0625 C 212.96875 221.328125 213.8125 220.285156 214.957031 221.328125 C 215.863281 222.199219 215.417969 223.425781 215.019531 224.4375 C 213.441406 228.449219 210.320312 230.410156 206.125 230.6875 C 200.335938 231.039062 195.867188 228.695312 193.785156 224.191406 C 192.222656 220.777344 191.792969 217.070312 191.335938 213.378906 C 190.644531 207.925781 189.070312 201.644531 184.980469 197.648438 C 182.164062 194.953125 178.519531 194.675781 174.9375 195.519531 C 172.242188 196.175781 169.59375 197.480469 167.464844 198.933594 C 164.574219 200.878906 162.136719 203.574219 160.808594 206.820312 C 160.117188 208.429688 159.6875 210.421875 160.347656 212.152344 C 160.867188 213.578125 162.261719 214.558594 163.59375 215.125 C 165.292969 215.890625 167.113281 215.75 168.890625 215.582031 C 169.792969 215.523438 170.957031 214.984375 171.433594 216.242188 C 171.816406 217.253906 170.972656 218.050781 170.34375 218.753906 C 168.644531 220.746094 166.363281 221.570312 163.824219 221.925781 C 155.832031 222.964844 148.863281 219.71875 145.648438 213.410156 C 141.808594 205.871094 143.167969 195.363281 148.757812 189.46875 C 149.660156 188.488281 150.746094 187.691406 152.417969 186.222656 C 142.433594 189.285156 136.480469 198.460938 137.414062 208.125 C 137.855469 212.550781 137.796875 212.597656 133.507812 211.234375 C 122.59375 207.773438 116.207031 196.332031 118.550781 184.183594 C 119.316406 180.109375 120.355469 176.128906 121.445312 172.144531 C 122.53125 168.070312 123.160156 164.089844 121.519531 160 C 120.402344 157.164062 121.6875 156.199219 124.476562 156.582031 C 128.5625 157.148438 130.9375 159.449219 131.65625 163.90625 C 132.34375 167.980469 132.453125 172.144531 134.488281 175.882812 C 135.773438 178.195312 138.007812 180.003906 140.582031 180.691406 C 143.230469 181.382812 146.125 180.09375 148.222656 178.457031 C 149.03125 177.796875 149.796875 177.0625 150.519531 176.265625 C 155.1875 171.101562 156.472656 165.128906 154.726562 158.375 C 153.089844 151.957031 149.597656 146.199219 146.492188 140.410156 C 138.605469 125.660156 135.820312 110.050781 144.640625 94.703125 C 155.171875 76.414062 171.921875 68.113281 192.667969 69.15625 C 213.734375 70.210938 229.949219 80.105469 237.878906 100.25 C 243.910156 115.625 239.867188 130.300781 231.539062 143.929688 C 229.382812 147.421875 226.625 150.625 224.988281 154.40625 C 223.929688 156.921875 223.730469 159.675781 224.222656 162.359375 C 225.585938 169.511719 232 175.929688 239.640625 174.609375 C 243.726562 173.90625 246.542969 169.753906 246.621094 164.179688 C 246.652344 162.234375 246.40625 160.335938 246.484375 158.421875 C 246.667969 154.820312 252.207031 150.121094 255.730469 150.363281 C 257.367188 150.503906 257.550781 151.34375 256.984375 152.601562 C 254.550781 158.054688 256.742188 162.785156 259.222656 167.472656 C 261.164062 171.164062 262.636719 174.980469 262.773438 179.238281 C 263.078125 188.488281 258.164062 195.425781 249.453125 198.398438 Z M 249.421875 198.445312 " fill-opacity="1" fill-rule="nonzero"/></g><path fill="#f1f2f2" d="M 29.675781 342.085938 L 29.675781 351.871094 L 0.140625 351.871094 L 0.140625 302.875 L 9.984375 302.875 L 9.984375 342.085938 Z M 29.675781 342.085938 " fill-opacity="1" fill-rule="nonzero"/><path fill="#f1f2f2" d="M 38.308594 302.875 L 48.152344 302.875 L 48.152344 351.871094 L 38.308594 351.871094 Z M 38.308594 302.875 " fill-opacity="1" fill-rule="nonzero"/><g clip-path="url(#cdd1b7c404)"><path fill="#f1f2f2" d="M 99.167969 302.75 L 99.167969 352.789062 L 98.707031 352.789062 L 69.632812 324.484375 L 69.632812 351.933594 L 59.789062 351.933594 L 59.789062 301.953125 L 60.28125 301.953125 L 89.292969 330.199219 L 89.292969 302.75 Z M 99.167969 302.75 " fill-opacity="1" fill-rule="nonzero"/></g><path fill="#f1f2f2" d="M 135.484375 351.871094 L 120.601562 330.414062 L 120.601562 351.871094 L 110.789062 351.871094 L 110.789062 302.875 L 120.601562 302.875 L 120.601562 324.054688 L 134.367188 302.875 L 145.726562 302.875 L 130.019531 326.859375 L 147.457031 351.871094 Z M 135.484375 351.871094 " fill-opacity="1" fill-rule="nonzero"/><path fill="#f1f2f2" d="M 186.238281 312.628906 L 174.203125 312.628906 L 174.203125 351.871094 L 164.328125 351.871094 L 164.328125 312.628906 L 152.261719 312.628906 L 152.261719 302.875 L 186.238281 302.875 Z M 186.238281 312.628906 " fill-opacity="1" fill-rule="nonzero"/><g clip-path="url(#568b1ae0d2)"><path fill="#f1f2f2" d="M 190.324219 327.425781 C 190.324219 313.351562 201.777344 301.863281 215.785156 301.863281 C 229.792969 301.863281 241.277344 313.351562 241.277344 327.425781 C 241.277344 341.503906 229.792969 352.804688 215.753906 352.804688 C 201.714844 352.804688 190.324219 341.378906 190.324219 327.425781 Z M 231.308594 327.363281 C 231.308594 318.789062 224.328125 311.804688 215.753906 311.804688 C 207.179688 311.804688 200.261719 318.789062 200.261719 327.363281 C 200.261719 335.941406 207.210938 342.835938 215.753906 342.835938 C 224.296875 342.835938 231.308594 335.882812 231.308594 327.363281 Z M 231.308594 327.363281 " fill-opacity="1" fill-rule="nonzero"/></g><path fill="#f1f2f2" d="M 250.769531 302.875 L 267.964844 302.875 C 277.441406 302.875 285.1875 310.316406 285.1875 319.445312 C 285.1875 328.574219 277.441406 335.957031 267.964844 335.957031 L 260.613281 335.957031 L 260.613281 351.886719 L 250.769531 351.886719 Z M 275.359375 319.355469 C 275.359375 315.648438 272.050781 312.628906 267.976562 312.628906 L 260.628906 312.628906 L 260.628906 326.183594 L 267.976562 326.214844 C 272.050781 326.246094 275.359375 323.152344 275.359375 319.339844 Z M 275.359375 319.355469 " fill-opacity="1" fill-rule="nonzero"/><g clip-path="url(#1ae6996693)"><path fill="#f1f2f2" d="M 293.410156 333.75 L 293.410156 302.875 L 303.3125 302.875 L 303.3125 333.722656 C 303.3125 339.066406 307.539062 342.957031 312.269531 342.957031 C 317 342.957031 321.289062 339.035156 321.289062 333.722656 L 321.289062 302.875 L 331.195312 302.875 L 331.195312 333.75 C 331.195312 344.839844 322.710938 352.929688 312.300781 352.929688 C 301.890625 352.929688 293.410156 344.839844 293.410156 333.75 Z M 293.410156 333.75 " fill-opacity="1" fill-rule="nonzero"/></g><g clip-path="url(#44d51d6528)"><path fill="#f1f2f2" d="M 339.859375 343.417969 L 347.730469 337.886719 C 349.886719 341.347656 353.011719 342.925781 357.238281 342.925781 C 361.859375 342.925781 364.953125 341.042969 364.953125 338.421875 C 364.953125 334.839844 359.089844 332.003906 353.960938 329.464844 C 348.464844 326.722656 342.417969 323.71875 342.417969 315.90625 C 342.417969 307.421875 349.582031 301.832031 358.585938 301.832031 C 365.273438 301.832031 370.800781 304.605469 373.023438 310.53125 L 365.765625 315.601562 C 364.308594 312.675781 361.476562 311.496094 358.753906 311.496094 C 355.078125 311.496094 352.335938 313.625 352.335938 316.152344 C 352.335938 319.078125 356.042969 320.074219 361.660156 322.722656 C 369.777344 326.554688 374.875 330.6875 374.875 338.222656 C 374.875 347.152344 367.585938 352.851562 357.097656 352.851562 C 349.078125 352.851562 343.152344 349.511719 339.875 343.433594 Z M 339.859375 343.417969 " fill-opacity="1" fill-rule="nonzero"/></g></svg>