<svg xmlns="http://www.w3.org/2000/svg" xmlns:xlink="http://www.w3.org/1999/xlink" width="500" zoomAndPan="magnify" viewBox="0 0 375 374.999991" height="500" preserveAspectRatio="xMidYMid meet" version="1.0"><defs><clipPath id="f20287e6d3"><path d="M 190 103 L 200 103 L 200 123 L 190 123 Z M 190 103 " clip-rule="nonzero"/></clipPath><clipPath id="a4a1bb5228"><path d="M 195.027344 103.863281 C 192.460938 103.863281 190.367188 105.957031 190.367188 108.523438 L 190.367188 118.058594 C 190.367188 120.625 192.460938 122.71875 195.027344 122.71875 C 197.59375 122.71875 199.6875 120.625 199.6875 118.058594 L 199.6875 108.523438 C 199.6875 105.957031 197.59375 103.863281 195.027344 103.863281 Z M 195.027344 103.863281 " clip-rule="nonzero"/></clipPath><linearGradient x1="127.300003" gradientTransform="matrix(1.528202, 0, 0, 1.528202, 0.486253, 22.499999)" y1="53.240002" x2="127.300003" gradientUnits="userSpaceOnUse" y2="65.580002" id="6e3d1f2115"><stop stop-opacity="1" stop-color="rgb(31.169128%, 18.588257%, 49.282837%)" offset="0"/><stop stop-opacity="1" stop-color="rgb(31.274414%, 18.56842%, 49.253845%)" offset="0.0625"/><stop stop-opacity="1" stop-color="rgb(31.486511%, 18.530273%, 49.195862%)" offset="0.125"/><stop stop-opacity="1" stop-color="rgb(31.698608%, 18.490601%, 49.136353%)" offset="0.1875"/><stop stop-opacity="1" stop-color="rgb(31.910706%, 18.452454%, 49.078369%)" offset="0.25"/><stop stop-opacity="1" stop-color="rgb(32.128906%, 18.412781%, 49.01886%)" offset="0.3125"/><stop stop-opacity="1" stop-color="rgb(32.382202%, 18.36853%, 48.950195%)" offset="0.375"/><stop stop-opacity="1" stop-color="rgb(32.667542%, 18.322754%, 48.873901%)" offset="0.4375"/><stop stop-opacity="1" stop-color="rgb(32.952881%, 18.276978%, 48.799133%)" offset="0.5"/><stop stop-opacity="1" stop-color="rgb(33.23822%, 18.229675%, 48.722839%)" offset="0.5625"/><stop stop-opacity="1" stop-color="rgb(33.52356%, 18.183899%, 48.648071%)" offset="0.625"/><stop stop-opacity="1" stop-color="rgb(33.808899%, 18.136597%, 48.571777%)" offset="0.6875"/><stop stop-opacity="1" stop-color="rgb(34.094238%, 18.09082%, 48.497009%)" offset="0.75"/><stop stop-opacity="1" stop-color="rgb(34.381104%, 18.045044%, 48.420715%)" offset="0.8125"/><stop stop-opacity="1" stop-color="rgb(34.666443%, 17.997742%, 48.344421%)" offset="0.875"/><stop stop-opacity="1" stop-color="rgb(34.951782%, 17.951965%, 48.269653%)" offset="0.9375"/><stop stop-opacity="1" stop-color="rgb(35.237122%, 17.906189%, 48.193359%)" offset="1"/></linearGradient><clipPath id="da391587d4"><path d="M 217 103 L 227 103 L 227 123 L 217 123 Z M 217 103 " clip-rule="nonzero"/></clipPath><clipPath id="d8a2811d2f"><path d="M 226.324219 118.042969 L 226.324219 108.507812 C 226.324219 105.941406 224.230469 103.847656 221.664062 103.847656 C 219.09375 103.847656 217 105.941406 217 108.507812 L 217 118.042969 C 217 120.609375 219.09375 122.703125 221.664062 122.703125 C 224.230469 122.703125 226.324219 120.609375 226.324219 118.042969 Z M 226.324219 118.042969 " clip-rule="nonzero"/></clipPath><linearGradient x1="144.729996" gradientTransform="matrix(1.528202, 0, 0, 1.528202, 0.486253, 22.499999)" y1="53.23" x2="144.729996" gradientUnits="userSpaceOnUse" y2="65.57" id="bbb642977b"><stop stop-opacity="1" stop-color="rgb(31.166077%, 18.589783%, 49.284363%)" offset="0"/><stop stop-opacity="1" stop-color="rgb(31.271362%, 18.569946%, 49.255371%)" offset="0.0625"/><stop stop-opacity="1" stop-color="rgb(31.483459%, 18.530273%, 49.195862%)" offset="0.125"/><stop stop-opacity="1" stop-color="rgb(31.695557%, 18.490601%, 49.137878%)" offset="0.1875"/><stop stop-opacity="1" stop-color="rgb(31.907654%, 18.452454%, 49.078369%)" offset="0.25"/><stop stop-opacity="1" stop-color="rgb(32.125854%, 18.412781%, 49.01886%)" offset="0.3125"/><stop stop-opacity="1" stop-color="rgb(32.37915%, 18.370056%, 48.951721%)" offset="0.375"/><stop stop-opacity="1" stop-color="rgb(32.66449%, 18.322754%, 48.875427%)" offset="0.4375"/><stop stop-opacity="1" stop-color="rgb(32.949829%, 18.276978%, 48.799133%)" offset="0.5"/><stop stop-opacity="1" stop-color="rgb(33.235168%, 18.231201%, 48.724365%)" offset="0.5625"/><stop stop-opacity="1" stop-color="rgb(33.520508%, 18.183899%, 48.648071%)" offset="0.625"/><stop stop-opacity="1" stop-color="rgb(33.805847%, 18.138123%, 48.573303%)" offset="0.6875"/><stop stop-opacity="1" stop-color="rgb(34.091187%, 18.09082%, 48.497009%)" offset="0.75"/><stop stop-opacity="1" stop-color="rgb(34.376526%, 18.045044%, 48.422241%)" offset="0.8125"/><stop stop-opacity="1" stop-color="rgb(34.661865%, 17.999268%, 48.345947%)" offset="0.875"/><stop stop-opacity="1" stop-color="rgb(34.947205%, 17.951965%, 48.271179%)" offset="0.9375"/><stop stop-opacity="1" stop-color="rgb(35.232544%, 17.906189%, 48.194885%)" offset="1"/></linearGradient><clipPath id="75cdfcc5cb"><path d="M 63 22.5 L 312 22.5 L 312 272 L 63 272 Z M 63 22.5 " clip-rule="nonzero"/></clipPath><clipPath id="3c1c774052"><path d="M 307.195312 144.96875 C 314.089844 137.804688 312.699219 126.234375 304.722656 120.734375 L 299.496094 117.15625 C 293.71875 113.304688 291.226562 105.863281 293.152344 99.246094 L 294.800781 93.179688 C 297.554688 83.8125 291.226562 74.167969 281.582031 72.519531 L 275.242188 71.417969 C 268.347656 70.316406 262.847656 65.074219 261.746094 58.199219 L 260.648438 51.855469 C 258.996094 42.214844 249.355469 36.164062 239.984375 38.914062 L 233.933594 40.839844 C 227.316406 42.765625 219.890625 40.289062 216.039062 34.769531 L 212.1875 29.269531 C 206.410156 21.277344 195.117188 20.175781 187.949219 26.792969 L 183.273438 31.195312 C 178.046875 35.871094 170.605469 36.972656 164.261719 33.394531 L 158.761719 30.371094 C 150.21875 25.695312 139.476562 29.546875 135.625 38.636719 L 133.148438 44.703125 C 130.671875 51.320312 124.058594 55.449219 117.179688 54.898438 L 110.835938 54.621094 C 100.917969 54.074219 92.941406 62.339844 93.769531 71.96875 L 94.316406 78.308594 C 94.867188 85.203125 90.742188 91.804688 84.398438 94.554688 L 78.625 97.03125 C 69.53125 100.882812 65.953125 111.625 70.628906 120.167969 L 73.933594 125.667969 C 77.507812 131.734375 76.683594 139.4375 72.007812 144.679688 L 67.878906 149.355469 C 61.261719 156.796875 62.652344 168.09375 70.90625 173.59375 L 76.132812 177.167969 C 81.925781 181.019531 84.398438 188.460938 82.472656 195.066406 L 80 201.40625 C 77.246094 210.773438 83.574219 220.417969 93.21875 222.066406 L 99.558594 223.167969 C 106.453125 224.269531 111.953125 229.511719 113.054688 236.386719 L 114.152344 242.730469 C 115.804688 252.371094 125.449219 258.421875 134.816406 255.671875 L 140.882812 253.746094 C 147.5 251.820312 154.925781 254.296875 158.777344 259.816406 L 162.628906 265.039062 C 168.421875 273.035156 179.699219 274.132812 186.867188 267.515625 L 191.542969 263.117188 C 196.769531 258.4375 204.210938 257.339844 210.554688 260.914062 L 216.054688 263.941406 C 224.597656 268.617188 235.339844 264.765625 239.191406 255.671875 L 241.667969 249.605469 C 244.144531 242.988281 250.761719 238.863281 257.636719 239.414062 L 263.980469 239.6875 C 273.898438 240.238281 281.875 231.96875 281.050781 222.34375 L 280.773438 216 C 280.222656 209.109375 284.351562 202.507812 290.691406 199.757812 L 296.46875 197.28125 C 305.5625 193.429688 309.136719 182.6875 304.460938 174.144531 L 301.160156 168.640625 C 297.585938 162.574219 298.410156 154.871094 303.085938 149.632812 L 307.210938 144.953125 Z M 249.324219 198.351562 C 246.925781 199.160156 246.007812 198.730469 245.210938 196.300781 C 243.027344 189.625 238.777344 184.566406 232.46875 181.339844 C 231.152344 180.683594 229.824219 179.765625 227.699219 180.652344 C 233.902344 185.316406 237.9375 191.230469 239.742188 198.578125 C 240.261719 200.703125 240.535156 202.890625 241.179688 204.984375 C 242.402344 209.199219 244.691406 210.347656 248.757812 208.878906 C 249.445312 208.636719 249.949219 208.117188 250.46875 208.941406 C 250.988281 209.8125 250.929688 210.820312 250.667969 211.753906 C 249.902344 214.578125 245.335938 217.5 241.453125 217.710938 C 237.554688 217.925781 234.316406 216.292969 231.886719 213.539062 C 228.050781 209.15625 226.203125 202.046875 221.96875 194.988281 C 220.394531 192.34375 216.710938 188.449219 214.585938 186.246094 C 212.953125 184.566406 211.011719 183.25 208.871094 182.320312 C 207.757812 181.832031 206.5625 181.449219 205.355469 181.144531 C 204.457031 180.929688 202.363281 181.082031 201.628906 180.59375 C 202.941406 181.464844 203.996094 182.089844 204.976562 182.792969 C 214.160156 189.195312 216.496094 199.496094 211.027344 209.277344 C 209.46875 212.027344 207.785156 214.71875 206.472656 217.589844 C 205.679688 219.300781 205.328125 221.410156 207.34375 222.816406 C 209.164062 224.101562 210.722656 223.199219 212.140625 221.914062 C 212.9375 221.179688 213.777344 220.140625 214.921875 221.179688 C 215.824219 222.050781 215.382812 223.273438 214.984375 224.285156 C 213.410156 228.289062 210.292969 230.242188 206.105469 230.519531 C 200.328125 230.871094 195.867188 228.53125 193.789062 224.039062 C 192.230469 220.632812 191.800781 216.933594 191.34375 213.25 C 190.65625 207.808594 189.082031 201.542969 185 197.554688 C 182.191406 194.867188 178.550781 194.589844 174.976562 195.429688 C 172.285156 196.089844 169.644531 197.386719 167.519531 198.839844 C 164.628906 200.78125 162.199219 203.46875 160.871094 206.710938 C 160.183594 208.3125 159.753906 210.300781 160.414062 212.027344 C 160.933594 213.449219 162.324219 214.425781 163.652344 214.992188 C 165.347656 215.757812 167.167969 215.617188 168.941406 215.449219 C 169.839844 215.390625 171.003906 214.855469 171.476562 216.109375 C 171.859375 217.117188 171.019531 217.910156 170.390625 218.613281 C 168.695312 220.601562 166.417969 221.425781 163.882812 221.777344 C 155.90625 222.816406 148.949219 219.578125 145.742188 213.28125 C 141.90625 205.761719 143.265625 195.277344 148.84375 189.394531 C 149.746094 188.417969 150.832031 187.621094 152.496094 186.15625 C 142.53125 189.210938 136.589844 198.367188 137.519531 208.007812 C 137.964844 212.425781 137.902344 212.472656 133.625 211.109375 C 122.726562 207.65625 116.355469 196.242188 118.691406 184.121094 C 119.457031 180.058594 120.496094 176.085938 121.582031 172.109375 C 122.667969 168.046875 123.292969 164.074219 121.65625 159.992188 C 120.542969 157.164062 121.824219 156.203125 124.605469 156.585938 C 128.6875 157.148438 131.054688 159.441406 131.773438 163.890625 C 132.460938 167.953125 132.570312 172.109375 134.601562 175.855469 C 135.886719 178.164062 138.117188 179.964844 140.683594 180.652344 C 143.328125 181.339844 146.214844 180.058594 148.308594 178.421875 C 149.121094 177.765625 149.882812 177.03125 150.601562 176.238281 C 155.261719 171.085938 156.546875 165.128906 154.804688 158.386719 C 153.167969 151.984375 149.683594 146.238281 146.582031 140.460938 C 138.710938 125.746094 135.929688 110.171875 144.734375 94.859375 C 155.246094 76.613281 171.964844 68.332031 192.671875 69.371094 C 213.699219 70.425781 229.882812 80.296875 237.800781 100.390625 C 243.820312 115.734375 239.789062 130.375 231.472656 143.976562 C 229.320312 147.460938 226.570312 150.65625 224.933594 154.429688 C 223.878906 156.9375 223.679688 159.6875 224.167969 162.359375 C 225.53125 169.496094 231.933594 175.902344 239.558594 174.585938 C 243.636719 173.882812 246.449219 169.742188 246.527344 164.179688 C 246.558594 162.238281 246.3125 160.34375 246.390625 158.433594 C 246.574219 154.84375 252.105469 150.152344 255.621094 150.394531 C 257.253906 150.53125 257.4375 151.375 256.871094 152.625 C 254.441406 158.082031 256.628906 162.789062 259.105469 167.464844 C 261.042969 171.148438 262.511719 174.953125 262.648438 179.203125 C 262.953125 188.433594 258.050781 195.355469 249.355469 198.320312 Z M 249.324219 198.351562 " clip-rule="nonzero"/></clipPath><linearGradient x1="122.470001" gradientTransform="matrix(1.528202, 0, 0, 1.528202, 0.486253, 22.499999)" y1="-0.000000613466" x2="122.470001" gradientUnits="userSpaceOnUse" y2="164.659989" id="13e319ca2e"><stop stop-opacity="1" stop-color="rgb(19.407654%, 20.640564%, 52.281189%)" offset="0"/><stop stop-opacity="1" stop-color="rgb(19.511414%, 20.623779%, 52.258301%)" offset="0.0078125"/><stop stop-opacity="1" stop-color="rgb(19.718933%, 20.591736%, 52.21405%)" offset="0.015625"/><stop stop-opacity="1" stop-color="rgb(19.926453%, 20.559692%, 52.1698%)" offset="0.0234375"/><stop stop-opacity="1" stop-color="rgb(20.133972%, 20.526123%, 52.124023%)" offset="0.03125"/><stop stop-opacity="1" stop-color="rgb(20.341492%, 20.49408%, 52.079773%)" offset="0.0390625"/><stop stop-opacity="1" stop-color="rgb(20.549011%, 20.462036%, 52.035522%)" offset="0.046875"/><stop stop-opacity="1" stop-color="rgb(20.756531%, 20.428467%, 51.989746%)" offset="0.0546875"/><stop stop-opacity="1" stop-color="rgb(20.96405%, 20.396423%, 51.945496%)" offset="0.0625"/><stop stop-opacity="1" stop-color="rgb(21.17157%, 20.36438%, 51.901245%)" offset="0.0703125"/><stop stop-opacity="1" stop-color="rgb(21.379089%, 20.330811%, 51.855469%)" offset="0.078125"/><stop stop-opacity="1" stop-color="rgb(21.586609%, 20.298767%, 51.811218%)" offset="0.0859375"/><stop stop-opacity="1" stop-color="rgb(21.794128%, 20.266724%, 51.766968%)" offset="0.09375"/><stop stop-opacity="1" stop-color="rgb(22.001648%, 20.233154%, 51.721191%)" offset="0.101563"/><stop stop-opacity="1" stop-color="rgb(22.209167%, 20.201111%, 51.676941%)" offset="0.109375"/><stop stop-opacity="1" stop-color="rgb(22.416687%, 20.169067%, 51.63269%)" offset="0.117187"/><stop stop-opacity="1" stop-color="rgb(22.624207%, 20.135498%, 51.586914%)" offset="0.125"/><stop stop-opacity="1" stop-color="rgb(22.831726%, 20.103455%, 51.542664%)" offset="0.132813"/><stop stop-opacity="1" stop-color="rgb(23.039246%, 20.071411%, 51.498413%)" offset="0.140625"/><stop stop-opacity="1" stop-color="rgb(23.246765%, 20.037842%, 51.452637%)" offset="0.148438"/><stop stop-opacity="1" stop-color="rgb(23.474121%, 20.001221%, 51.400757%)" offset="0.15625"/><stop stop-opacity="1" stop-color="rgb(23.776245%, 19.947815%, 51.322937%)" offset="0.164063"/><stop stop-opacity="1" stop-color="rgb(24.130249%, 19.882202%, 51.225281%)" offset="0.171875"/><stop stop-opacity="1" stop-color="rgb(24.484253%, 19.818115%, 51.127625%)" offset="0.179688"/><stop stop-opacity="1" stop-color="rgb(24.838257%, 19.752502%, 51.029968%)" offset="0.1875"/><stop stop-opacity="1" stop-color="rgb(25.192261%, 19.68689%, 50.932312%)" offset="0.195313"/><stop stop-opacity="1" stop-color="rgb(25.546265%, 19.622803%, 50.834656%)" offset="0.203125"/><stop stop-opacity="1" stop-color="rgb(25.900269%, 19.55719%, 50.737%)" offset="0.210938"/><stop stop-opacity="1" stop-color="rgb(26.254272%, 19.491577%, 50.639343%)" offset="0.21875"/><stop stop-opacity="1" stop-color="rgb(26.608276%, 19.42749%, 50.541687%)" offset="0.226563"/><stop stop-opacity="1" stop-color="rgb(26.96228%, 19.361877%, 50.444031%)" offset="0.234375"/><stop stop-opacity="1" stop-color="rgb(27.316284%, 19.296265%, 50.346375%)" offset="0.242188"/><stop stop-opacity="1" stop-color="rgb(27.670288%, 19.232178%, 50.248718%)" offset="0.25"/><stop stop-opacity="1" stop-color="rgb(28.024292%, 19.166565%, 50.151062%)" offset="0.257812"/><stop stop-opacity="1" stop-color="rgb(28.378296%, 19.100952%, 50.053406%)" offset="0.265625"/><stop stop-opacity="1" stop-color="rgb(28.7323%, 19.036865%, 49.95575%)" offset="0.273438"/><stop stop-opacity="1" stop-color="rgb(29.084778%, 18.971252%, 49.858093%)" offset="0.28125"/><stop stop-opacity="1" stop-color="rgb(29.438782%, 18.90564%, 49.760437%)" offset="0.289062"/><stop stop-opacity="1" stop-color="rgb(29.792786%, 18.841553%, 49.662781%)" offset="0.296875"/><stop stop-opacity="1" stop-color="rgb(30.14679%, 18.77594%, 49.565125%)" offset="0.304687"/><stop stop-opacity="1" stop-color="rgb(30.500793%, 18.710327%, 49.467468%)" offset="0.3125"/><stop stop-opacity="1" stop-color="rgb(30.854797%, 18.64624%, 49.369812%)" offset="0.320313"/><stop stop-opacity="1" stop-color="rgb(31.208801%, 18.580627%, 49.272156%)" offset="0.328125"/><stop stop-opacity="1" stop-color="rgb(31.562805%, 18.515015%, 49.1745%)" offset="0.335937"/><stop stop-opacity="1" stop-color="rgb(31.916809%, 18.450928%, 49.076843%)" offset="0.34375"/><stop stop-opacity="1" stop-color="rgb(32.313538%, 18.382263%, 48.968506%)" offset="0.347656"/><stop stop-opacity="1" stop-color="rgb(32.533264%, 18.345642%, 48.910522%)" offset="0.351563"/><stop stop-opacity="1" stop-color="rgb(32.771301%, 18.305969%, 48.846436%)" offset="0.355469"/><stop stop-opacity="1" stop-color="rgb(33.009338%, 18.267822%, 48.783875%)" offset="0.359375"/><stop stop-opacity="1" stop-color="rgb(33.247375%, 18.228149%, 48.721313%)" offset="0.363281"/><stop stop-opacity="1" stop-color="rgb(33.485413%, 18.190002%, 48.658752%)" offset="0.367188"/><stop stop-opacity="1" stop-color="rgb(33.72345%, 18.151855%, 48.594666%)" offset="0.371094"/><stop stop-opacity="1" stop-color="rgb(33.961487%, 18.113708%, 48.532104%)" offset="0.375"/><stop stop-opacity="1" stop-color="rgb(34.199524%, 18.074036%, 48.468018%)" offset="0.378906"/><stop stop-opacity="1" stop-color="rgb(34.437561%, 18.035889%, 48.405457%)" offset="0.382813"/><stop stop-opacity="1" stop-color="rgb(34.675598%, 17.996216%, 48.342896%)" offset="0.386719"/><stop stop-opacity="1" stop-color="rgb(34.913635%, 17.958069%, 48.280334%)" offset="0.390625"/><stop stop-opacity="1" stop-color="rgb(35.151672%, 17.919922%, 48.216248%)" offset="0.394531"/><stop stop-opacity="1" stop-color="rgb(35.389709%, 17.881775%, 48.153687%)" offset="0.398438"/><stop stop-opacity="1" stop-color="rgb(35.627747%, 17.842102%, 48.0896%)" offset="0.402344"/><stop stop-opacity="1" stop-color="rgb(35.865784%, 17.803955%, 48.027039%)" offset="0.40625"/><stop stop-opacity="1" stop-color="rgb(36.103821%, 17.764282%, 47.964478%)" offset="0.410156"/><stop stop-opacity="1" stop-color="rgb(36.341858%, 17.726135%, 47.901917%)" offset="0.414063"/><stop stop-opacity="1" stop-color="rgb(36.579895%, 17.687988%, 47.83783%)" offset="0.417969"/><stop stop-opacity="1" stop-color="rgb(36.817932%, 17.649841%, 47.775269%)" offset="0.421875"/><stop stop-opacity="1" stop-color="rgb(37.055969%, 17.610168%, 47.712708%)" offset="0.425781"/><stop stop-opacity="1" stop-color="rgb(37.294006%, 17.572021%, 47.650146%)" offset="0.429688"/><stop stop-opacity="1" stop-color="rgb(37.532043%, 17.532349%, 47.58606%)" offset="0.433594"/><stop stop-opacity="1" stop-color="rgb(37.770081%, 17.494202%, 47.523499%)" offset="0.4375"/><stop stop-opacity="1" stop-color="rgb(38.008118%, 17.456055%, 47.459412%)" offset="0.441406"/><stop stop-opacity="1" stop-color="rgb(38.246155%, 17.417908%, 47.396851%)" offset="0.445313"/><stop stop-opacity="1" stop-color="rgb(38.484192%, 17.378235%, 47.33429%)" offset="0.449219"/><stop stop-opacity="1" stop-color="rgb(38.722229%, 17.340088%, 47.271729%)" offset="0.453125"/><stop stop-opacity="1" stop-color="rgb(38.960266%, 17.300415%, 47.207642%)" offset="0.457031"/><stop stop-opacity="1" stop-color="rgb(39.198303%, 17.262268%, 47.145081%)" offset="0.460938"/><stop stop-opacity="1" stop-color="rgb(39.43634%, 17.224121%, 47.080994%)" offset="0.464844"/><stop stop-opacity="1" stop-color="rgb(39.674377%, 17.185974%, 47.018433%)" offset="0.46875"/><stop stop-opacity="1" stop-color="rgb(39.912415%, 17.146301%, 46.955872%)" offset="0.472656"/><stop stop-opacity="1" stop-color="rgb(40.150452%, 17.108154%, 46.893311%)" offset="0.476562"/><stop stop-opacity="1" stop-color="rgb(40.386963%, 17.068481%, 46.829224%)" offset="0.480469"/><stop stop-opacity="1" stop-color="rgb(40.625%, 17.030334%, 46.766663%)" offset="0.484375"/><stop stop-opacity="1" stop-color="rgb(40.863037%, 16.992188%, 46.702576%)" offset="0.488281"/><stop stop-opacity="1" stop-color="rgb(41.101074%, 16.954041%, 46.640015%)" offset="0.492188"/><stop stop-opacity="1" stop-color="rgb(41.339111%, 16.914368%, 46.577454%)" offset="0.496094"/><stop stop-opacity="1" stop-color="rgb(41.577148%, 16.876221%, 46.514893%)" offset="0.5"/><stop stop-opacity="1" stop-color="rgb(41.815186%, 16.836548%, 46.450806%)" offset="0.503906"/><stop stop-opacity="1" stop-color="rgb(42.053223%, 16.798401%, 46.388245%)" offset="0.507813"/><stop stop-opacity="1" stop-color="rgb(42.29126%, 16.760254%, 46.324158%)" offset="0.511719"/><stop stop-opacity="1" stop-color="rgb(42.529297%, 16.722107%, 46.261597%)" offset="0.515625"/><stop stop-opacity="1" stop-color="rgb(42.767334%, 16.682434%, 46.199036%)" offset="0.519531"/><stop stop-opacity="1" stop-color="rgb(43.005371%, 16.644287%, 46.136475%)" offset="0.523438"/><stop stop-opacity="1" stop-color="rgb(43.243408%, 16.604614%, 46.072388%)" offset="0.527344"/><stop stop-opacity="1" stop-color="rgb(43.481445%, 16.566467%, 46.009827%)" offset="0.53125"/><stop stop-opacity="1" stop-color="rgb(43.728638%, 16.526794%, 45.942688%)" offset="0.535156"/><stop stop-opacity="1" stop-color="rgb(43.97583%, 16.487122%, 45.877075%)" offset="0.539062"/><stop stop-opacity="1" stop-color="rgb(44.287109%, 16.438293%, 45.7901%)" offset="0.542969"/><stop stop-opacity="1" stop-color="rgb(44.598389%, 16.389465%, 45.703125%)" offset="0.546875"/><stop stop-opacity="1" stop-color="rgb(44.909668%, 16.340637%, 45.614624%)" offset="0.550781"/><stop stop-opacity="1" stop-color="rgb(45.220947%, 16.291809%, 45.527649%)" offset="0.554688"/><stop stop-opacity="1" stop-color="rgb(45.532227%, 16.242981%, 45.439148%)" offset="0.558594"/><stop stop-opacity="1" stop-color="rgb(45.843506%, 16.194153%, 45.352173%)" offset="0.5625"/><stop stop-opacity="1" stop-color="rgb(46.154785%, 16.145325%, 45.265198%)" offset="0.566406"/><stop stop-opacity="1" stop-color="rgb(46.466064%, 16.096497%, 45.178223%)" offset="0.570313"/><stop stop-opacity="1" stop-color="rgb(46.777344%, 16.047668%, 45.089722%)" offset="0.574219"/><stop stop-opacity="1" stop-color="rgb(47.088623%, 15.99884%, 45.002747%)" offset="0.578125"/><stop stop-opacity="1" stop-color="rgb(47.399902%, 15.950012%, 44.915771%)" offset="0.582031"/><stop stop-opacity="1" stop-color="rgb(47.711182%, 15.901184%, 44.828796%)" offset="0.585938"/><stop stop-opacity="1" stop-color="rgb(48.020935%, 15.852356%, 44.740295%)" offset="0.589844"/><stop stop-opacity="1" stop-color="rgb(48.332214%, 15.803528%, 44.65332%)" offset="0.59375"/><stop stop-opacity="1" stop-color="rgb(48.643494%, 15.7547%, 44.564819%)" offset="0.597656"/><stop stop-opacity="1" stop-color="rgb(48.954773%, 15.705872%, 44.477844%)" offset="0.601562"/><stop stop-opacity="1" stop-color="rgb(49.266052%, 15.657043%, 44.390869%)" offset="0.605469"/><stop stop-opacity="1" stop-color="rgb(49.577332%, 15.608215%, 44.303894%)" offset="0.609375"/><stop stop-opacity="1" stop-color="rgb(49.888611%, 15.559387%, 44.215393%)" offset="0.613281"/><stop stop-opacity="1" stop-color="rgb(50.19989%, 15.510559%, 44.128418%)" offset="0.617188"/><stop stop-opacity="1" stop-color="rgb(50.511169%, 15.461731%, 44.039917%)" offset="0.621094"/><stop stop-opacity="1" stop-color="rgb(50.822449%, 15.412903%, 43.952942%)" offset="0.625"/><stop stop-opacity="1" stop-color="rgb(51.133728%, 15.364075%, 43.865967%)" offset="0.628906"/><stop stop-opacity="1" stop-color="rgb(51.445007%, 15.315247%, 43.778992%)" offset="0.632813"/><stop stop-opacity="1" stop-color="rgb(51.756287%, 15.266418%, 43.690491%)" offset="0.636719"/><stop stop-opacity="1" stop-color="rgb(52.067566%, 15.21759%, 43.603516%)" offset="0.640625"/><stop stop-opacity="1" stop-color="rgb(52.378845%, 15.168762%, 43.515015%)" offset="0.644531"/><stop stop-opacity="1" stop-color="rgb(52.690125%, 15.119934%, 43.42804%)" offset="0.648438"/><stop stop-opacity="1" stop-color="rgb(53.001404%, 15.071106%, 43.341064%)" offset="0.652344"/><stop stop-opacity="1" stop-color="rgb(53.312683%, 15.022278%, 43.254089%)" offset="0.65625"/><stop stop-opacity="1" stop-color="rgb(53.623962%, 14.97345%, 43.165588%)" offset="0.660156"/><stop stop-opacity="1" stop-color="rgb(53.935242%, 14.924622%, 43.078613%)" offset="0.664062"/><stop stop-opacity="1" stop-color="rgb(54.246521%, 14.875793%, 42.990112%)" offset="0.667969"/><stop stop-opacity="1" stop-color="rgb(54.5578%, 14.826965%, 42.903137%)" offset="0.671875"/><stop stop-opacity="1" stop-color="rgb(54.86908%, 14.778137%, 42.816162%)" offset="0.675781"/><stop stop-opacity="1" stop-color="rgb(55.180359%, 14.729309%, 42.729187%)" offset="0.679688"/><stop stop-opacity="1" stop-color="rgb(55.491638%, 14.680481%, 42.640686%)" offset="0.683594"/><stop stop-opacity="1" stop-color="rgb(55.802917%, 14.631653%, 42.553711%)" offset="0.6875"/><stop stop-opacity="1" stop-color="rgb(56.114197%, 14.582825%, 42.46521%)" offset="0.691406"/><stop stop-opacity="1" stop-color="rgb(56.425476%, 14.533997%, 42.378235%)" offset="0.695313"/><stop stop-opacity="1" stop-color="rgb(56.735229%, 14.485168%, 42.29126%)" offset="0.699219"/><stop stop-opacity="1" stop-color="rgb(57.046509%, 14.43634%, 42.204285%)" offset="0.703125"/><stop stop-opacity="1" stop-color="rgb(57.357788%, 14.387512%, 42.115784%)" offset="0.707031"/><stop stop-opacity="1" stop-color="rgb(57.669067%, 14.338684%, 42.028809%)" offset="0.710938"/><stop stop-opacity="1" stop-color="rgb(57.980347%, 14.289856%, 41.941833%)" offset="0.714844"/><stop stop-opacity="1" stop-color="rgb(58.291626%, 14.241028%, 41.854858%)" offset="0.71875"/><stop stop-opacity="1" stop-color="rgb(58.602905%, 14.1922%, 41.766357%)" offset="0.722656"/><stop stop-opacity="1" stop-color="rgb(58.914185%, 14.143372%, 41.679382%)" offset="0.726563"/><stop stop-opacity="1" stop-color="rgb(59.246826%, 14.08844%, 41.586304%)" offset="0.730469"/><stop stop-opacity="1" stop-color="rgb(59.579468%, 14.035034%, 41.493225%)" offset="0.734375"/><stop stop-opacity="1" stop-color="rgb(59.93042%, 13.975525%, 41.395569%)" offset="0.738281"/><stop stop-opacity="1" stop-color="rgb(60.281372%, 13.917542%, 41.299438%)" offset="0.742188"/><stop stop-opacity="1" stop-color="rgb(60.632324%, 13.858032%, 41.201782%)" offset="0.746094"/><stop stop-opacity="1" stop-color="rgb(60.983276%, 13.798523%, 41.104126%)" offset="0.75"/><stop stop-opacity="1" stop-color="rgb(61.334229%, 13.739014%, 41.00647%)" offset="0.753906"/><stop stop-opacity="1" stop-color="rgb(61.685181%, 13.68103%, 40.910339%)" offset="0.757812"/><stop stop-opacity="1" stop-color="rgb(62.036133%, 13.621521%, 40.812683%)" offset="0.761719"/><stop stop-opacity="1" stop-color="rgb(62.387085%, 13.562012%, 40.715027%)" offset="0.765625"/><stop stop-opacity="1" stop-color="rgb(62.738037%, 13.502502%, 40.617371%)" offset="0.769531"/><stop stop-opacity="1" stop-color="rgb(63.088989%, 13.444519%, 40.52124%)" offset="0.773438"/><stop stop-opacity="1" stop-color="rgb(63.439941%, 13.38501%, 40.423584%)" offset="0.777344"/><stop stop-opacity="1" stop-color="rgb(63.790894%, 13.3255%, 40.325928%)" offset="0.78125"/><stop stop-opacity="1" stop-color="rgb(64.141846%, 13.265991%, 40.228271%)" offset="0.785156"/><stop stop-opacity="1" stop-color="rgb(64.492798%, 13.208008%, 40.132141%)" offset="0.789063"/><stop stop-opacity="1" stop-color="rgb(64.84375%, 13.148499%, 40.034485%)" offset="0.792969"/><stop stop-opacity="1" stop-color="rgb(65.194702%, 13.088989%, 39.936829%)" offset="0.796875"/><stop stop-opacity="1" stop-color="rgb(65.545654%, 13.02948%, 39.839172%)" offset="0.800781"/><stop stop-opacity="1" stop-color="rgb(65.896606%, 12.971497%, 39.743042%)" offset="0.804687"/><stop stop-opacity="1" stop-color="rgb(66.247559%, 12.911987%, 39.645386%)" offset="0.808594"/><stop stop-opacity="1" stop-color="rgb(66.598511%, 12.852478%, 39.549255%)" offset="0.8125"/><stop stop-opacity="1" stop-color="rgb(66.949463%, 12.792969%, 39.451599%)" offset="0.816406"/><stop stop-opacity="1" stop-color="rgb(67.300415%, 12.734985%, 39.353943%)" offset="0.820312"/><stop stop-opacity="1" stop-color="rgb(67.651367%, 12.675476%, 39.256287%)" offset="0.824219"/><stop stop-opacity="1" stop-color="rgb(68.002319%, 12.615967%, 39.160156%)" offset="0.828125"/><stop stop-opacity="1" stop-color="rgb(68.351746%, 12.556458%, 39.0625%)" offset="0.832031"/><stop stop-opacity="1" stop-color="rgb(68.702698%, 12.498474%, 38.964844%)" offset="0.835938"/><stop stop-opacity="1" stop-color="rgb(69.05365%, 12.438965%, 38.867188%)" offset="0.839844"/><stop stop-opacity="1" stop-color="rgb(69.404602%, 12.379456%, 38.771057%)" offset="0.84375"/><stop stop-opacity="1" stop-color="rgb(69.755554%, 12.319946%, 38.673401%)" offset="0.847656"/><stop stop-opacity="1" stop-color="rgb(70.106506%, 12.261963%, 38.575745%)" offset="0.851562"/><stop stop-opacity="1" stop-color="rgb(70.457458%, 12.202454%, 38.478088%)" offset="0.855469"/><stop stop-opacity="1" stop-color="rgb(70.808411%, 12.142944%, 38.381958%)" offset="0.859375"/><stop stop-opacity="1" stop-color="rgb(71.159363%, 12.083435%, 38.284302%)" offset="0.863281"/><stop stop-opacity="1" stop-color="rgb(71.510315%, 12.025452%, 38.186646%)" offset="0.867187"/><stop stop-opacity="1" stop-color="rgb(71.861267%, 11.965942%, 38.088989%)" offset="0.871094"/><stop stop-opacity="1" stop-color="rgb(72.212219%, 11.906433%, 37.992859%)" offset="0.875"/><stop stop-opacity="1" stop-color="rgb(72.563171%, 11.846924%, 37.895203%)" offset="0.878906"/><stop stop-opacity="1" stop-color="rgb(72.914124%, 11.78894%, 37.797546%)" offset="0.882812"/><stop stop-opacity="1" stop-color="rgb(73.265076%, 11.729431%, 37.69989%)" offset="0.886719"/><stop stop-opacity="1" stop-color="rgb(73.616028%, 11.669922%, 37.60376%)" offset="0.890625"/><stop stop-opacity="1" stop-color="rgb(73.96698%, 11.610413%, 37.506104%)" offset="0.894531"/><stop stop-opacity="1" stop-color="rgb(74.317932%, 11.552429%, 37.408447%)" offset="0.898438"/><stop stop-opacity="1" stop-color="rgb(74.668884%, 11.49292%, 37.310791%)" offset="0.902344"/><stop stop-opacity="1" stop-color="rgb(75.019836%, 11.433411%, 37.214661%)" offset="0.90625"/><stop stop-opacity="1" stop-color="rgb(75.370789%, 11.373901%, 37.117004%)" offset="0.910156"/><stop stop-opacity="1" stop-color="rgb(75.721741%, 11.315918%, 37.019348%)" offset="0.914062"/><stop stop-opacity="1" stop-color="rgb(76.072693%, 11.256409%, 36.921692%)" offset="0.917969"/><stop stop-opacity="1" stop-color="rgb(76.423645%, 11.196899%, 36.825562%)" offset="0.921875"/><stop stop-opacity="1" stop-color="rgb(76.774597%, 11.13739%, 36.727905%)" offset="0.925781"/><stop stop-opacity="1" stop-color="rgb(77.125549%, 11.079407%, 36.630249%)" offset="0.929687"/><stop stop-opacity="1" stop-color="rgb(77.49939%, 11.016846%, 36.528015%)" offset="0.933594"/><stop stop-opacity="1" stop-color="rgb(77.874756%, 10.955811%, 36.427307%)" offset="0.9375"/><stop stop-opacity="1" stop-color="rgb(78.29895%, 10.888672%, 36.315918%)" offset="0.941406"/><stop stop-opacity="1" stop-color="rgb(78.723145%, 10.823059%, 36.206055%)" offset="0.945312"/><stop stop-opacity="1" stop-color="rgb(79.147339%, 10.75592%, 36.094666%)" offset="0.949219"/><stop stop-opacity="1" stop-color="rgb(79.571533%, 10.690308%, 35.983276%)" offset="0.953125"/><stop stop-opacity="1" stop-color="rgb(79.995728%, 10.623169%, 35.871887%)" offset="0.957031"/><stop stop-opacity="1" stop-color="rgb(80.419922%, 10.55603%, 35.762024%)" offset="0.960938"/><stop stop-opacity="1" stop-color="rgb(80.844116%, 10.488892%, 35.650635%)" offset="0.964844"/><stop stop-opacity="1" stop-color="rgb(81.269836%, 10.423279%, 35.539246%)" offset="0.96875"/><stop stop-opacity="1" stop-color="rgb(81.694031%, 10.35614%, 35.427856%)" offset="0.972656"/><stop stop-opacity="1" stop-color="rgb(82.118225%, 10.290527%, 35.317993%)" offset="0.976562"/><stop stop-opacity="1" stop-color="rgb(82.542419%, 10.223389%, 35.206604%)" offset="0.980469"/><stop stop-opacity="1" stop-color="rgb(82.966614%, 10.157776%, 35.095215%)" offset="0.984375"/><stop stop-opacity="1" stop-color="rgb(83.390808%, 10.090637%, 34.983826%)" offset="0.988281"/><stop stop-opacity="1" stop-color="rgb(83.816528%, 10.023499%, 34.873962%)" offset="0.992188"/><stop stop-opacity="1" stop-color="rgb(84.240723%, 9.95636%, 34.762573%)" offset="0.996094"/><stop stop-opacity="1" stop-color="rgb(84.664917%, 9.890747%, 34.65271%)" offset="1"/></linearGradient><clipPath id="abde608cad"><path d="M 60 301 L 100 301 L 100 352.5 L 60 352.5 Z M 60 301 " clip-rule="nonzero"/></clipPath><clipPath id="1fc98858d3"><path d="M 190 301 L 242 301 L 242 352.5 L 190 352.5 Z M 190 301 " clip-rule="nonzero"/></clipPath><clipPath id="34bca74a75"><path d="M 293 302 L 331 302 L 331 352.5 L 293 352.5 Z M 293 302 " clip-rule="nonzero"/></clipPath><clipPath id="2c683c76fe"><path d="M 339 301 L 375 301 L 375 352.5 L 339 352.5 Z M 339 301 " clip-rule="nonzero"/></clipPath></defs><rect x="-37.5" width="450" fill="#ffffff" y="-37.499999" height="449.999989" fill-opacity="1"/><rect x="-37.5" width="450" fill="#ffffff" y="-37.499999" height="449.999989" fill-opacity="1"/><g clip-path="url(#f20287e6d3)"><g clip-path="url(#a4a1bb5228)"><path fill="url(#6e3d1f2115)" d="M 190.367188 103.863281 L 190.367188 122.71875 L 199.6875 122.71875 L 199.6875 103.863281 Z M 190.367188 103.863281 " fill-rule="nonzero"/></g></g><g clip-path="url(#da391587d4)"><g clip-path="url(#d8a2811d2f)"><path fill="url(#bbb642977b)" d="M 217 103.847656 L 217 122.703125 L 226.324219 122.703125 L 226.324219 103.847656 Z M 217 103.847656 " fill-rule="nonzero"/></g></g><g clip-path="url(#75cdfcc5cb)"><g clip-path="url(#3c1c774052)"><path fill="url(#13e319ca2e)" d="M 61.261719 22.5 L 61.261719 274.132812 L 314.089844 274.132812 L 314.089844 22.5 Z M 61.261719 22.5 " fill-rule="nonzero"/></g></g><path fill="#c11e5d" d="M 29.964844 341.664062 L 29.964844 351.429688 L 0.484375 351.429688 L 0.484375 302.542969 L 10.3125 302.542969 L 10.3125 341.664062 Z M 29.964844 341.664062 " fill-opacity="1" fill-rule="nonzero"/><path fill="#c11e5d" d="M 38.585938 302.542969 L 48.410156 302.542969 L 48.410156 351.429688 L 38.585938 351.429688 Z M 38.585938 302.542969 " fill-opacity="1" fill-rule="nonzero"/><g clip-path="url(#abde608cad)"><path fill="#c11e5d" d="M 99.332031 302.421875 L 99.332031 352.347656 L 98.871094 352.347656 L 69.851562 324.105469 L 69.851562 351.492188 L 60.023438 351.492188 L 60.023438 301.625 L 60.515625 301.625 L 89.472656 329.804688 L 89.472656 302.421875 Z M 99.332031 302.421875 " fill-opacity="1" fill-rule="nonzero"/></g><path fill="#c11e5d" d="M 135.578125 351.429688 L 120.726562 330.019531 L 120.726562 351.429688 L 110.929688 351.429688 L 110.929688 302.542969 L 120.726562 302.542969 L 120.726562 323.679688 L 134.464844 302.542969 L 145.804688 302.542969 L 130.125 326.476562 L 147.53125 351.429688 Z M 135.578125 351.429688 " fill-opacity="1" fill-rule="nonzero"/><path fill="#c11e5d" d="M 186.238281 312.277344 L 174.226562 312.277344 L 174.226562 351.429688 L 164.371094 351.429688 L 164.371094 312.277344 L 152.328125 312.277344 L 152.328125 302.542969 L 186.238281 302.542969 Z M 186.238281 312.277344 " fill-opacity="1" fill-rule="nonzero"/><g clip-path="url(#1fc98858d3)"><path fill="#c11e5d" d="M 190.320312 327.039062 C 190.320312 312.996094 201.75 301.535156 215.734375 301.535156 C 229.714844 301.535156 241.179688 312.996094 241.179688 327.039062 C 241.179688 341.085938 229.714844 352.363281 215.703125 352.363281 C 201.6875 352.363281 190.320312 340.960938 190.320312 327.039062 Z M 231.230469 326.980469 C 231.230469 318.421875 224.261719 311.453125 215.703125 311.453125 C 207.144531 311.453125 200.238281 318.421875 200.238281 326.980469 C 200.238281 335.535156 207.175781 342.414062 215.703125 342.414062 C 224.230469 342.414062 231.230469 335.476562 231.230469 326.980469 Z M 231.230469 326.980469 " fill-opacity="1" fill-rule="nonzero"/></g><path fill="#c11e5d" d="M 250.652344 302.542969 L 267.816406 302.542969 C 277.273438 302.542969 285.007812 309.96875 285.007812 319.078125 C 285.007812 328.1875 277.273438 335.550781 267.816406 335.550781 L 260.480469 335.550781 L 260.480469 351.445312 L 250.652344 351.445312 Z M 275.195312 318.988281 C 275.195312 315.289062 271.894531 312.277344 267.828125 312.277344 L 260.496094 312.277344 L 260.496094 325.800781 L 267.828125 325.832031 C 271.894531 325.863281 275.195312 322.777344 275.195312 318.972656 Z M 275.195312 318.988281 " fill-opacity="1" fill-rule="nonzero"/><g clip-path="url(#34bca74a75)"><path fill="#c11e5d" d="M 293.214844 333.351562 L 293.214844 302.542969 L 303.101562 302.542969 L 303.101562 333.320312 C 303.101562 338.65625 307.320312 342.535156 312.039062 342.535156 C 316.761719 342.535156 321.042969 338.625 321.042969 333.320312 L 321.042969 302.542969 L 330.929688 302.542969 L 330.929688 333.351562 C 330.929688 344.414062 322.464844 352.484375 312.070312 352.484375 C 301.679688 352.484375 293.214844 344.414062 293.214844 333.351562 Z M 293.214844 333.351562 " fill-opacity="1" fill-rule="nonzero"/></g><g clip-path="url(#2c683c76fe)"><path fill="#c11e5d" d="M 339.578125 342.996094 L 347.433594 337.476562 C 349.589844 340.929688 352.707031 342.503906 356.925781 342.503906 C 361.539062 342.503906 364.625 340.625 364.625 338.011719 C 364.625 334.4375 358.773438 331.609375 353.652344 329.074219 C 348.167969 326.335938 342.132812 323.34375 342.132812 315.546875 C 342.132812 307.082031 349.28125 301.503906 358.269531 301.503906 C 364.945312 301.503906 370.464844 304.269531 372.679688 310.183594 L 365.4375 315.242188 C 363.984375 312.324219 361.15625 311.148438 358.4375 311.148438 C 354.769531 311.148438 352.035156 313.269531 352.035156 315.792969 C 352.035156 318.710938 355.730469 319.703125 361.339844 322.347656 C 369.441406 326.167969 374.527344 330.296875 374.527344 337.8125 C 374.527344 346.722656 367.253906 352.40625 356.785156 352.40625 C 348.777344 352.40625 342.863281 349.078125 339.59375 343.007812 Z M 339.578125 342.996094 " fill-opacity="1" fill-rule="nonzero"/></g></svg>