<svg width="28" height="28" viewBox="0 0 28 28" fill="none" xmlns="http://www.w3.org/2000/svg">
<path d="M20.0344 13.9926C20.0172 13.2414 20.2103 12.5002 20.5919 11.8528C20.9735 11.2054 21.5284 10.6776 22.1941 10.3288C21.7746 9.74659 21.2259 9.26961 20.5911 8.93528C19.9562 8.60096 19.2524 8.4184 18.5351 8.40195C17.0013 8.27875 15.3258 9.29636 14.716 9.29636C14.068 9.29636 12.5822 8.44507 11.4155 8.44507C9.00085 8.48449 6.43958 10.3682 6.43958 14.1996C6.44881 15.3948 6.65698 16.5802 7.05556 17.7071C7.60872 19.2926 9.60452 23.1807 11.6866 23.1154C12.7756 23.0896 13.5444 22.3417 14.9611 22.3417C16.3348 22.3417 17.0481 23.1154 18.2616 23.1154C20.356 23.0846 22.167 19.5513 22.6967 17.9621C21.9087 17.64 21.2345 17.0904 20.7603 16.3833C20.2861 15.6763 20.0334 14.844 20.0344 13.9926ZM17.5889 6.89894C17.9711 6.47842 18.2609 5.98245 18.4395 5.44305C18.6182 4.90364 18.6818 4.33276 18.6263 3.76726C17.4952 3.88822 16.4495 4.42574 15.6929 5.27519C15.3048 5.68902 15.006 6.17835 14.8153 6.71269C14.6245 7.24703 14.5458 7.81493 14.5842 8.381C15.1673 8.39367 15.7448 8.26557 16.2679 8.00758C16.7909 7.74959 17.2441 7.3693 17.5889 6.89894Z" fill="#243443"/>
</svg>
