<svg width="17" height="17" viewBox="0 0 17 17" fill="none" xmlns="http://www.w3.org/2000/svg">
<path d="M15.8026 14.3553V8.81826C15.8026 8.37208 15.7119 7.93057 15.5359 7.52058C15.3598 7.11059 15.1023 6.74069 14.7788 6.43339L9.53454 1.4523C9.22887 1.16191 8.82335 1 8.40173 1C7.98011 1 7.57459 1.16191 7.26891 1.4523L2.02385 6.43339C1.70037 6.74069 1.44279 7.11059 1.26678 7.52058C1.09077 7.93057 1 8.37208 1 8.81826V14.3553C1 14.7915 1.17328 15.2098 1.48173 15.5183C1.79018 15.8267 2.20853 16 2.64474 16H14.1579C14.5941 16 15.0125 15.8267 15.3209 15.5183C15.6293 15.2098 15.8026 14.7915 15.8026 14.3553Z" stroke="black" stroke-linecap="round" stroke-linejoin="round"/>
<path d="M5.9342 11.0658C5.9342 10.6295 6.10749 10.2112 6.41594 9.90275C6.72438 9.59431 7.14273 9.42102 7.57894 9.42102H9.22368C9.65989 9.42102 10.0782 9.59431 10.3867 9.90275C10.6951 10.2112 10.8684 10.6295 10.8684 11.0658V16H5.9342V11.0658Z" stroke="black" stroke-linecap="round" stroke-linejoin="round"/>
</svg>
