<svg width="15" height="15" viewBox="0 0 15 15" fill="none" xmlns="http://www.w3.org/2000/svg">
<g clip-path="url(#clip0_335_624)">
<path d="M12.1875 10.3125C11.8538 10.3142 11.5266 10.4058 11.2406 10.5778L8.16281 7.5L11.2411 4.42172C11.5269 4.59392 11.8539 4.68575 12.1875 4.6875C12.5583 4.6875 12.9209 4.57753 13.2292 4.37151C13.5375 4.16548 13.7779 3.87264 13.9198 3.53003C14.0617 3.18742 14.0988 2.81042 14.0265 2.44671C13.9541 2.08299 13.7755 1.7489 13.5133 1.48668C13.2511 1.22445 12.917 1.04588 12.5533 0.973528C12.1896 0.901181 11.8126 0.938312 11.47 1.08023C11.1274 1.22214 10.8345 1.46246 10.6285 1.77081C10.4225 2.07915 10.3125 2.44166 10.3125 2.8125C10.3142 3.14615 10.4061 3.47314 10.5783 3.75891L7.5 6.83719L4.42219 3.75938C4.59418 3.47336 4.68584 3.14624 4.6875 2.8125C4.6875 2.44166 4.57753 2.07915 4.37151 1.77081C4.16548 1.46246 3.87264 1.22214 3.53003 1.08023C3.18742 0.938312 2.81042 0.901181 2.44671 0.973528C2.08299 1.04588 1.7489 1.22445 1.48668 1.48668C1.22445 1.7489 1.04588 2.08299 0.973528 2.44671C0.901181 2.81042 0.938312 3.18742 1.08023 3.53003C1.22214 3.87264 1.46246 4.16548 1.77081 4.37151C2.07915 4.57753 2.44166 4.6875 2.8125 4.6875C3.14624 4.68584 3.47336 4.59418 3.75938 4.42219L6.83719 7.5L3.75891 10.5783C3.47313 10.4061 3.14615 10.3142 2.8125 10.3125C2.44166 10.3125 2.07915 10.4225 1.77081 10.6285C1.46246 10.8345 1.22214 11.1274 1.08023 11.47C0.938312 11.8126 0.901181 12.1896 0.973528 12.5533C1.04588 12.917 1.22445 13.2511 1.48668 13.5133C1.7489 13.7755 2.08299 13.9541 2.44671 14.0265C2.81042 14.0988 3.18742 14.0617 3.53003 13.9198C3.87264 13.7779 4.16548 13.5375 4.37151 13.2292C4.57753 12.9209 4.6875 12.5583 4.6875 12.1875C4.68578 11.8539 4.59395 11.5269 4.42172 11.2411L7.5 8.16281L10.5778 11.2406C10.4058 11.5266 10.3142 11.8538 10.3125 12.1875C10.3125 12.5583 10.4225 12.9209 10.6285 13.2292C10.8345 13.5375 11.1274 13.7779 11.47 13.9198C11.8126 14.0617 12.1896 14.0988 12.5533 14.0265C12.917 13.9541 13.2511 13.7755 13.5133 13.5133C13.7755 13.2511 13.9541 12.917 14.0265 12.5533C14.0988 12.1896 14.0617 11.8126 13.9198 11.47C13.7779 11.1274 13.5375 10.8345 13.2292 10.6285C12.9209 10.4225 12.5583 10.3125 12.1875 10.3125ZM12.1875 1.875C12.3729 1.875 12.5542 1.92998 12.7083 2.033C12.8625 2.13601 12.9827 2.28243 13.0536 2.45373C13.1246 2.62504 13.1432 2.81354 13.107 2.9954C13.0708 3.17726 12.9815 3.3443 12.8504 3.47541C12.7193 3.60653 12.5523 3.69581 12.3704 3.73199C12.1885 3.76816 12 3.7496 11.8287 3.67864C11.6574 3.60768 11.511 3.48752 11.408 3.33335C11.305 3.17918 11.25 2.99792 11.25 2.8125C11.2502 2.56394 11.3491 2.32562 11.5249 2.14986C11.7006 1.9741 11.9389 1.87525 12.1875 1.875ZM2.8125 13.125C2.62708 13.125 2.44582 13.07 2.29165 12.967C2.13748 12.864 2.01732 12.7176 1.94636 12.5463C1.87541 12.375 1.85684 12.1865 1.89301 12.0046C1.92919 11.8227 2.01848 11.6557 2.14959 11.5246C2.2807 11.3935 2.44775 11.3042 2.6296 11.268C2.81146 11.2318 2.99996 11.2504 3.17127 11.3214C3.34257 11.3923 3.48899 11.5125 3.592 11.6667C3.69502 11.8208 3.75 12.0021 3.75 12.1875C3.74975 12.4361 3.6509 12.6744 3.47514 12.8501C3.29938 13.0259 3.06107 13.1248 2.8125 13.125Z" fill="black"/>
</g>
<defs>
<clipPath id="clip0_335_624">
<rect width="15" height="15" fill="white"/>
</clipPath>
</defs>
</svg>
