<svg width="227" height="370" viewBox="0 0 227 370" fill="none" xmlns="http://www.w3.org/2000/svg">
<path d="M81.3657 9.01959C81.3657 9.01959 75.9934 9.44324 75.5313 16.8756C75.0692 24.308 75.0307 45.8733 85.1202 47.2019C95.2097 48.5305 87.9506 11.7731 87.9506 11.7731L81.3657 9.01959Z" fill="#1C2226"/>
<path d="M116.411 15.6817C116.411 15.6817 120.493 27.0612 112.348 29.1407C104.184 31.2203 105.705 14.7189 105.705 14.7189L116.411 15.6817Z" fill="#1C2226"/>
<path d="M70.0056 87.1556L44.7626 122.738L46.1682 119.407L34.5191 171.626L21.5413 169.2L29.5706 116.307C29.7439 115.152 30.1867 114.112 30.8029 113.227L30.9762 112.976L56.2192 77.3934L70.0056 87.1556Z" fill="#FCC9A7"/>
<path d="M24.852 187.646C18.2091 185.663 14.4544 178.654 16.4376 172.031C18.4209 165.388 25.4297 161.633 32.0533 163.616C38.6962 165.6 42.4509 172.609 40.4677 179.232C38.4844 185.856 31.4949 189.63 24.852 187.646Z" fill="#FCC9A7"/>
<path d="M124.649 85.9424L140.611 134.734L132.043 128.919L184.031 127.513L184.859 140.703L133.102 145.806C129.251 146.191 125.785 143.803 124.63 140.279L124.534 139.991L108.571 91.1989L124.649 85.9424Z" fill="#FCC9A7"/>
<path d="M121.824 335.503L129.642 357.049L141.079 346.767L133.781 329.496L121.824 335.503Z" fill="#FCC9A7"/>
<path d="M125.119 352.062C125.119 351.003 126.024 350.31 126.928 350.695C128.7 351.446 131.646 352.101 135.131 350.541C138.77 348.905 139.444 346.228 139.444 344.457C139.444 343.532 140.099 342.839 140.946 342.955L167.575 346.787C169.193 347.018 170.714 347.961 171.792 349.405C172.813 350.753 172.331 352.736 170.907 353.16L131.145 365.252C129.586 365.733 127.891 364.597 127.429 362.787L125.176 353.892C125.138 353.737 125.119 353.583 125.119 353.449V352.062Z" fill="#1F252A"/>
<path d="M17.8483 320.869L9.18365 337.833L19.2732 346.459L30.1714 326.107L17.8483 320.869Z" fill="#FCC9A7"/>
<path d="M7.37191 334.098C8.18061 333.424 9.29739 333.655 9.58621 334.598C10.1639 336.447 11.5502 339.104 15.0161 340.76C18.6168 342.473 21.1006 341.241 22.4485 340.105C23.1609 339.508 24.1236 339.566 24.5665 340.278L38.892 363.057C39.7585 364.443 40.0281 366.195 39.6237 367.947C39.2579 369.603 37.4479 370.508 36.1771 369.7L1.21036 347.21C-0.156732 346.324 -0.407042 344.303 0.671226 342.781L6.00484 335.311C6.10111 335.195 6.19733 335.08 6.31286 334.983L7.37191 334.098Z" fill="#1F252A"/>
<path d="M112.988 161.749L78.7913 256.616L30.3847 336.832L8.80005 326.165L51.8346 246.199L75.4409 166.216L112.988 161.749Z" fill="#092330"/>
<path d="M60.1522 163.154C60.1522 163.154 53.6825 175.381 63.7335 194.924L94.9456 254.479L118.725 344.746L142.351 336.504L119.746 245.217L95.3114 173.995L113.007 161.768L60.1522 163.154Z" fill="#0C2C40"/>
<path d="M89.5913 57.7536L62.9619 63.2219C59.8234 63.8573 57.0507 65.6673 55.183 68.2667L38.2388 91.8731L60.8826 106.68L52.7184 171.318C52.7184 171.318 61.9414 199.545 118.204 177.037C118.204 177.037 113.352 123.47 116.606 88.5805L114.95 65.6095L89.5913 57.7536Z" fill="#5C63AB"/>
<path d="M114.971 65.5899L119.4 67.2073C123.058 68.5359 125.908 71.4821 127.121 75.1983L136.344 103.329L109.233 108.336L114.971 65.5899Z" fill="#5C63AB"/>
<path d="M201.323 130.344C201.323 137.276 195.701 142.898 188.769 142.898C181.837 142.898 176.234 137.276 176.234 130.344C176.234 123.412 181.856 117.809 188.769 117.809C195.701 117.809 201.323 123.412 201.323 130.344Z" fill="#FCC9A7"/>
<path d="M97.1189 65.8983L94.0959 67.5734C88.2232 67.0921 82.6971 65.8405 83.1785 59.9678L84.5841 42.754L105.861 44.5062L104.455 61.72C103.974 67.5927 102.992 66.3796 97.1189 65.8983Z" fill="#FCC9A7"/>
<path d="M84.2924 44.8335C84.2924 44.8335 87.2191 57.5802 97.9247 57.1373C107.283 56.733 106.397 42.754 106.397 42.754L84.2924 44.8335Z" fill="#F4BE9A"/>
<path d="M96.0987 52.6127L94.2888 52.4199C85.239 51.4379 78.6926 43.3124 79.6553 34.2434L80.7719 23.923C81.7539 14.8732 89.8794 8.32655 98.9484 9.28929L100.758 9.48186C109.808 10.4639 116.355 18.5894 115.392 27.6585L114.275 37.9788C113.293 47.0286 105.168 53.5754 96.0987 52.6127Z" fill="#FCC9A7"/>
<path d="M62.4427 102.174L69.2974 94.0871" stroke="#CE804A" stroke-width="0.7693" stroke-miterlimit="10" stroke-linecap="round" stroke-linejoin="round"/>
<path d="M115.581 107.161L116.621 90.4674" stroke="#CE804A" stroke-width="0.7693" stroke-miterlimit="10" stroke-linecap="round" stroke-linejoin="round"/>
<path d="M97.117 65.8984L83.6001 57.7344C77.8237 55.3275 74.146 60.9114 74.146 60.9114L90.243 76.7004L97.117 65.8984Z" fill="#EDA472"/>
<path d="M97.1164 65.8984L103.663 76.0264L110.21 64.1077C110.21 64.1077 107.63 60.0449 104.106 60.9884L97.1164 65.8984Z" fill="#EDA472"/>
<path d="M132.397 130.864H214.211C215.578 130.864 216.675 129.766 216.675 128.399C216.675 127.032 215.578 125.935 214.211 125.935H132.397C131.03 125.935 129.932 127.032 129.932 128.399C129.932 129.747 131.03 130.864 132.397 130.864Z" fill="#D1D1D1"/>
<path d="M216.671 127.764L226.453 80.2431C226.703 79.0686 225.798 77.9518 224.585 77.9518H174.811C173.906 77.9518 173.117 78.5872 172.944 79.4922L163.297 127.783H216.671V127.764Z" fill="#D1D1D1"/>
<path d="M220.927 81.572L211.8 124.683H166.667L175.794 81.572H220.927Z" fill="#EFEFEF"/>
<path d="M81.8512 31.7786H87.3773L88.4556 25.7134C88.4556 25.7134 94.2321 22.6133 93.1153 16.6252C93.1153 16.6252 117.434 25.3475 121.227 15.6431C126.234 2.83871 108.076 -0.338294 93.1153 0.0275468C78.1543 0.374134 79.2326 19.4748 79.2326 19.4748L81.8512 31.7786Z" fill="#1C2226"/>
<path d="M85.0823 30.5657C84.7357 33.8005 81.8282 36.1305 78.5934 35.7839C75.3586 35.4373 73.0288 32.5296 73.3753 29.2948C73.7219 26.06 76.6292 23.7302 79.864 24.0768C83.0988 24.4234 85.4288 27.3309 85.0823 30.5657Z" fill="#FCC9A7"/>
</svg>
