<svg width="133" height="370" viewBox="0 0 133 370" fill="none" xmlns="http://www.w3.org/2000/svg">
<path d="M41.709 369.897C49.0652 370.099 56.4212 369.965 63.7774 369.831C84.3007 369.46 104.824 369.057 125.347 368.689C128.538 368.621 132.67 367.984 132.838 365.832C133.006 363.885 129.748 362.642 126.993 362.071C117.151 360.022 106.806 359.619 96.5944 359.316C81.5799 358.846 66.5318 358.443 51.5171 358.141C42.1456 357.94 32.5054 357.838 23.7721 360.022C19.036 361.231 12.0493 366.237 19.6742 368.655C21.7902 369.326 26.0227 368.991 28.3068 369.192C32.7742 369.494 37.2416 369.762 41.709 369.897Z" fill="url(#paint0_linear_24_275)"/>
<path opacity="0.22" d="M41.709 369.897C49.0652 370.099 56.4212 369.965 63.7774 369.831C84.3007 369.46 104.824 369.057 125.347 368.689C128.538 368.621 132.67 367.984 132.838 365.832C133.006 363.885 129.748 362.642 126.993 362.071C117.151 360.022 106.806 359.619 96.5944 359.316C81.5799 358.846 66.5318 358.443 51.5171 358.141C42.1456 357.94 32.5054 357.838 23.7721 360.022C19.036 361.231 12.0493 366.237 19.6742 368.655C21.7902 369.326 26.0227 368.991 28.3068 369.192C32.7742 369.494 37.2416 369.762 41.709 369.897Z" fill="url(#paint1_linear_24_275)"/>
<path d="M28.8847 55.1628C27.0372 56.3047 25.5928 57.8836 24.2492 59.4624C15.2809 70.1438 9.6714 82.5383 4.73372 94.8993C2.08014 101.55 -0.439083 108.47 0.0647608 115.389C0.131941 116.162 0.232703 116.968 0.635779 117.64C1.00527 118.311 1.64345 118.815 2.28167 119.285C3.32293 120.058 4.39781 120.797 5.50626 121.435C6.346 121.939 7.25294 122.409 8.29421 122.476C9.20113 122.51 10.1081 122.241 10.9478 121.838C14.3404 120.226 16.3893 117.035 17.5314 113.877C18.6734 110.687 19.0765 107.395 20.3194 104.237C21.3606 101.584 22.9392 99.1316 24.3836 96.6124C26.3991 93.0854 28.1794 89.4915 29.926 85.8638C31.8406 81.9338 33.7551 78.0038 35.1324 73.9394C36.3416 70.4461 37.1476 66.8184 39.0287 63.4931C39.9693 61.8472 41.1449 60.302 41.6824 58.5554C43.7984 51.871 33.1842 52.5428 28.8847 55.1628Z" fill="#E02D72"/>
<path d="M102.322 356.328C102.59 355.957 102.792 355.555 102.926 355.084C100.508 326.6 100.239 298.117 98.6604 269.632C97.216 243.466 100.239 216.761 99.9704 190.428C100.911 181.291 99.3993 171.987 95.503 163.422C95.2678 162.884 94.999 162.347 94.5289 161.944C93.0509 160.667 90.498 161.339 88.5163 162.011C69.5717 168.46 47.201 166.949 29.9359 157.846C26.5099 162.145 25.5358 167.419 24.6959 172.491C23.3188 180.72 21.8408 188.95 21.4714 197.213V197.246C21.4041 199.027 21.337 200.807 21.4041 202.588C21.6393 212.899 24.0577 223.043 25.9388 233.188C27.1815 239.804 28.2565 246.488 28.3573 253.207C28.458 258.715 27.5174 263.721 28.9955 269.095C32.6566 282.329 32.6566 296.773 34.2018 310.31C35.8477 324.786 37.4936 339.298 38.8373 353.808C38.9044 354.379 38.938 354.95 39.0051 355.555C39.2403 355.621 40.4159 355.823 41.9947 356.091C41.8266 356.125 41.6251 356.125 41.4573 356.16C38.2998 358.243 34.8065 359.989 31.1451 361.299C30.0703 361.668 28.9618 362.036 28.1892 362.776C27.4167 363.515 27.0808 364.759 27.8199 365.564C28.458 366.237 29.6 366.337 30.6077 366.337C38.2998 366.403 45.9581 365.832 53.5158 364.624C53.9525 364.556 54.4565 364.456 54.7924 364.188C55.061 363.951 55.1617 363.649 55.2625 363.314C56.0351 360.761 55.5313 357.94 53.919 355.723C53.7173 355.723 53.5158 355.723 53.3143 355.689C53.348 355.621 53.3814 355.555 53.3814 355.454C54.4565 327.271 55.5313 299.125 56.6398 270.942C57.1099 259.086 56.0687 219.047 59.6964 207.759C61.2079 207.894 62.6858 207.996 64.1975 208.13C72.4268 245.415 82.2015 310.712 90.4309 347.963C91.1698 351.254 92.0431 354.781 94.6631 356.899C94.6631 356.899 94.6631 356.899 94.6968 356.899C93.5212 357.099 92.3456 357.301 91.1698 357.57C88.5835 359.687 85.6947 361.5 82.5709 362.944C81.6639 363.381 80.7235 363.783 80.0853 364.522C79.4806 365.261 79.3464 366.403 80.0853 367.042C80.7235 367.613 81.7647 367.579 82.638 367.513C89.4904 367.008 96.2756 365.9 102.893 364.22C103.296 364.12 103.699 364.019 103.967 363.717C104.169 363.483 104.236 363.18 104.303 362.91C104.673 360.592 103.934 358.175 102.322 356.328Z" fill="#E02D72"/>
<path d="M103.595 135.274C103.427 127.078 103.125 118.882 102.621 110.687C101.983 100.005 101.58 89.0212 99.6316 78.4405C98.389 71.7898 95.8361 64.7024 89.6554 60.7724C88.1105 57.5813 85.8599 54.8942 82.4673 53.3827C81.4261 51.8376 79.4106 51.636 77.7984 52.375C76.522 51.7368 74.8425 51.6358 73.499 52.7109C72.424 53.5506 71.4836 54.4575 70.5766 55.398C66.4787 55.0286 62.3472 54.3231 58.2829 55.0284C54.1177 55.7339 48.2395 54.7264 43.0667 54.8942C42.3614 52.7109 39.2711 51.1994 37.3229 53.4835C35.8785 55.1294 34.6022 56.876 33.3929 58.6227C32.3181 59.8654 31.4111 61.3098 30.6385 62.9557C25.7008 71.4202 22.7451 80.7582 21.0655 90.3312C15.2209 111.56 14.8179 134.166 15.792 156.234C15.792 156.368 15.7584 156.536 15.792 156.671L16.4638 174.742C16.6653 180.318 16.4637 186.062 17.7402 191.537C19.6885 199.867 25.5666 198.087 36.2144 198.826C38.297 198.96 40.2452 200.304 39.9766 198.96C40.8499 198.994 41.7232 199.027 42.63 199.061C42.9325 199.061 43.2684 199.095 43.5706 199.095C43.6714 199.095 43.7385 199.095 43.8392 199.095C47.4333 199.195 51.0611 199.162 54.3192 199.095C54.6551 199.095 54.9574 199.095 55.2933 199.061C56.2003 200.404 58.1821 201.212 59.8951 200.741C60.8355 200.472 61.7762 200.236 62.7166 200.002C63.0525 200.102 63.4221 200.17 63.8251 200.202C64.5977 200.236 65.3703 200.27 66.1428 200.304C67.4528 201.109 69.1658 201.244 70.4422 200.304C76.8243 200.136 83.1057 199.162 89.1853 197.449L94.3246 196.878C94.8954 196.81 95.4665 196.642 96.0039 196.374C97.8179 196.575 99.8668 195.736 100.404 193.754C105.476 174.339 105.913 154.756 103.595 135.274Z" fill="black"/>
<path d="M74.5764 17.9116C74.5764 9.07747 66.1454 1.92285 55.6991 1.92285C45.2862 1.92285 36.8217 9.07747 36.8217 17.9116C36.8217 19.3895 37.0903 20.8003 37.527 22.1774C37.527 22.5133 37.5606 22.8828 37.5606 23.2524C37.4935 26.4432 37.6614 29.6343 38.3332 32.7917C39.6769 38.905 43.1365 44.5817 49.6865 48.075C51.8698 49.2171 54.3891 50.1239 57.0091 50.0905C60.536 50.0568 63.7606 48.4109 66.179 46.362C74.2405 39.6105 74.946 29.4663 74.3749 19.8596C74.5093 19.2214 74.5764 18.5833 74.5764 17.9116Z" fill="#EDD5BE"/>
<path d="M79.2729 20.2294C79.0713 17.643 78.6683 15.1574 77.9965 12.6718V12.6382C77.5598 10.0853 77.1566 7.56615 76.7536 5.01334C76.6529 4.30796 76.2162 3.70336 75.4773 3.56902C72.6558 3.03158 69.8343 2.62841 66.9791 2.3261C65.0644 1.31841 62.6459 0.848251 60.4963 1.04979C58.9511 0.848251 57.3725 0.915359 56.0625 1.08331C55.2563 1.18408 54.3829 1.35204 53.5433 1.62075C52.0652 1.58716 50.5874 1.6544 49.143 1.78877C45.9855 -1.16712 38.6966 -0.327412 36.5133 3.33386C36.0766 4.07283 35.8415 4.77822 35.7744 5.45002C32.9192 6.1554 30.0977 7.90198 29.2579 10.8243C28.8212 12.2686 29.0229 13.881 29.9297 15.0902C30.4336 15.7956 31.1726 16.1651 31.9452 16.5009C32.2474 16.8704 32.617 17.2399 32.9863 17.5758C33.3223 18.1468 33.7926 18.6171 34.4978 19.0202C34.7667 19.1882 35.0689 19.2216 35.3377 19.2216C35.5392 19.3561 35.7407 19.4568 35.9086 19.5576C37.1851 20.3301 38.3944 18.8858 38.1256 17.6766C38.2934 17.3407 38.3271 16.9376 38.26 16.5346C38.7974 15.8964 39.3012 15.1574 39.8051 14.6199C40.4096 14.3176 40.9807 14.0154 41.6189 13.7467C41.686 13.7131 41.7533 13.713 41.8204 13.6794C41.9212 13.6458 41.9885 13.6122 42.0892 13.5786C43.0296 13.2428 43.9366 13.1756 44.81 13.31C44.9107 13.3436 44.9778 13.3771 45.0786 13.3771C45.784 13.5787 46.4893 13.7803 47.2284 13.9482C47.6651 14.1161 48.1352 14.3176 48.5719 14.5192C49.0422 14.7207 49.5125 14.6536 49.9155 14.452C54.1478 15.0902 58.5817 15.1238 62.8811 14.8887C64.8629 16.6354 68.4235 16.1986 70.3717 14.5192L70.4051 14.4857C70.4725 15.2246 70.3044 15.9971 69.8677 16.7025C69.5991 17.1391 69.6326 17.8781 69.935 18.2812C70.8084 19.3561 71.2114 20.5318 71.1443 21.9089C71.1106 23.0174 72.3199 23.5212 73.1932 23.3197C73.4618 23.2524 73.4284 24.193 73.3274 25.1335C73.2266 24.8983 72.958 24.7304 72.6221 24.8312C70.674 25.4359 68.6921 26.0404 66.7103 26.5779C66.5088 25.9397 66.1058 25.4023 65.3669 25.0998C64.2918 24.6631 62.8811 24.8312 61.7728 24.8312C59.4551 24.8312 57.1373 24.8648 54.8196 24.8312C54.5173 24.8312 54.3158 24.9992 54.2485 25.2008C53.9126 25.2008 53.5769 25.2008 53.2744 25.2008C52.9051 25.2008 52.6028 25.4694 52.6028 25.8053C52.6028 26.6115 52.6026 27.3841 52.6363 28.1901C52.1996 28.1567 51.7966 28.123 51.3936 28.123C50.4866 28.0894 49.5796 28.0894 48.6726 28.0894C48.6392 27.6527 48.6055 27.216 48.5719 26.813C48.6055 26.4434 48.6392 26.1075 48.6392 25.7382C48.6392 25.4023 48.3367 25.1335 47.9674 25.1335H47.7993C47.7659 25.1335 47.7322 25.0998 47.6651 25.0998C45.5825 24.999 43.5 24.8648 41.4174 24.7641C39.973 24.6968 38.0248 24.2265 36.6812 24.6968C34.6993 25.3686 35.0018 27.6863 35.2368 29.5674C35.0353 30.3734 35.0018 31.1797 35.4385 31.65C35.7744 32.053 36.2445 32.0864 36.7148 32.1537C38.26 32.4224 40.0737 32.1874 41.6189 32.1874C43.1304 32.1874 46.4893 32.8592 47.7659 31.7844C48.3369 31.2804 48.5719 30.3734 48.6392 29.3659C48.6726 29.3659 48.7063 29.3659 48.7399 29.3659C48.7736 29.5674 48.9078 29.7353 49.1766 29.7689C50.3522 29.9704 51.5614 30.0712 52.737 30.0041C53.0058 30.9445 53.6777 31.7507 54.9204 32.1537C56.5326 32.7248 58.7496 32.2882 60.4628 32.3553C61.4369 32.3889 62.3773 32.3889 63.1835 32.053C63.8888 31.9857 64.5943 31.8849 65.2659 31.7507C65.434 31.7171 65.5684 31.5827 65.6691 31.4483C65.8706 31.4148 66.0721 31.2804 66.1393 31.0789C66.4417 30.1719 66.8784 28.8285 66.8784 27.5856C68.8936 26.9811 70.9426 26.4098 72.9917 25.8389C73.1259 25.8053 73.2268 25.7382 73.2939 25.6374C73.1932 26.2756 73.0924 26.8467 73.0588 26.9474C72.6894 28.4253 72.0176 29.6682 71.2114 30.9109C70.8755 31.4148 71.0433 32.4224 71.5473 32.7919C71.9166 33.0607 72.2862 33.2286 72.6221 33.3964C72.1518 35.6471 70.9762 37.7967 69.767 39.8459C68.4233 42.1299 65.0644 44.1452 63.0155 45.9255C60.9666 47.7393 58.1451 49.0158 55.2563 48.8143C54.8869 48.7807 54.4837 48.747 54.1478 48.5792C53.4425 48.2433 53.1737 47.4707 52.9385 46.7652C52.737 46.0599 52.5019 45.321 51.7966 44.9178C51.1248 44.5148 49.9155 44.8841 50.0163 45.5896C50.0836 46.0597 50.621 46.3958 50.621 46.866C50.621 47.4034 49.8819 47.7056 49.2774 47.5714C48.7063 47.437 48.3033 47.0004 47.9003 46.5637C46.9933 45.556 46.0863 44.5482 45.213 43.5741C44.8436 43.1375 44.4069 42.8018 43.8359 43.0369C44.5748 44.6155 46.0528 46.127 47.094 47.5714C47.9674 48.747 48.8743 49.9563 50.1843 50.7625C51.7629 51.7029 53.7111 51.9715 55.6258 52.0052C57.9434 52.0388 60.3618 51.77 62.2093 50.5273C63.5529 49.654 66.8111 47.034 67.651 45.7577C70.4388 41.4918 72.2191 38.5693 73.7306 33.8331C73.7306 33.766 73.7643 33.7326 73.7643 33.6653C76.2162 33.7326 77.6606 30.6759 78.2988 28.0894C78.8027 25.9733 79.0377 23.6556 78.601 21.6067C79.0713 21.3715 79.34 20.9012 79.2729 20.2294ZM46.8252 29.7353C46.7918 29.836 46.7245 29.9368 46.691 30.0375C44.7092 30.239 42.6603 30.5078 40.7119 30.4071C39.7378 30.3734 38.9652 30.1719 38.4278 29.7353V29.7018C38.4278 28.5597 38.4615 27.3841 38.4615 26.2419C39.7715 26.2419 41.0478 26.2419 42.3578 26.2419C43.903 26.2756 45.4145 26.3427 46.9596 26.3763C47.0269 26.9474 47.094 27.6192 47.094 28.2238C46.9933 28.7277 46.926 29.2315 46.8252 29.7353ZM64.3255 28.5597C64.0569 29.6682 63.721 30.4405 62.6796 30.8772C60.9329 31.0789 59.1863 31.1124 57.4396 30.9782C55.9952 30.8438 55.4914 30.8438 55.357 29.5003C55.3236 29.2651 55.3236 29.0298 55.3236 28.7948C55.3907 28.6268 55.3907 28.4253 55.3236 28.2574C55.3236 27.6863 55.357 27.0816 55.3907 26.5108C58.2458 26.5108 61.101 26.5108 63.9559 26.5444C64.1576 26.6786 64.2918 26.8467 64.3928 27.0482C64.3928 27.4512 64.3928 27.8878 64.3928 28.2909C64.3591 28.3916 64.3255 28.4589 64.3255 28.5597Z" fill="black"/>
<path d="M35.9426 84.7549C34.0615 81.6648 31.8448 78.8768 29.6278 76.0553C27.646 73.536 27.4445 70.0763 24.7237 68.0609C22.0701 66.1127 18.6104 66.079 15.453 66.3815C14.8483 66.4486 14.3109 66.6501 13.8742 66.9526C13.5719 67.0868 13.3032 67.2883 13.0681 67.5235C12.094 67.725 11.1535 68.0611 10.1458 68.4304C8.1976 69.203 7.59297 71.1512 8.53349 72.9649C12.7994 81.4631 17.2668 89.9614 24.1526 96.6793C25.0596 97.5863 26.2689 97.6197 27.2766 97.2167C27.8475 97.4182 28.4856 97.5526 29.1575 97.5526C30.9378 97.5526 32.7852 97.2167 34.5319 96.9144C36.3456 96.6122 38.0252 96.2763 38.9656 94.4959C40.6452 91.4056 37.5214 87.3078 35.9426 84.7549Z" fill="#B3BFCB"/>
<path d="M40.9158 91.1709C35.4072 83.1765 29.9657 75.1487 24.4569 67.1543C23.718 66.0794 22.5088 66.1131 21.7025 66.684C18.8139 66.5497 15.9588 66.5161 13.0701 66.6169C11.5249 66.6842 9.81187 66.6169 9.0393 68.162C8.80418 68.6323 9.17364 69.1024 9.67749 69.1024C13.3052 69.1361 16.9329 69.2032 20.5606 69.2368C20.7284 69.5057 21.0644 69.5728 21.3332 69.4383C26.7747 77.3656 32.2161 85.2927 37.6242 93.2534C39.0349 95.4031 42.3602 93.2534 40.9158 91.1709Z" fill="#606060"/>
<path d="M70.9649 119.52C66.6655 116.564 62.2652 113.81 57.7307 111.257C54.4052 107.63 50.5089 104.506 46.2094 101.987C44.8323 101.18 43.5223 101.449 42.6489 102.255C42.4474 102.289 42.2123 102.323 42.0108 102.423C41.3389 101.987 40.6671 101.617 40.0289 101.449C39.5923 101.651 39.1891 101.852 38.7861 102.121C38.7189 102.154 38.4501 102.356 38.2486 102.49C38.0471 102.658 37.6441 102.961 37.6441 102.961C37.4761 103.129 37.2745 103.263 37.1067 103.431C37.0394 105.043 38.0135 107.294 38.9876 109.107L41.6749 113.978C41.7756 114.18 41.8764 114.415 42.0108 114.616C42.0442 114.683 42.0779 114.751 42.1115 114.784L46.3774 122.543C46.646 122.644 46.9483 122.779 47.2171 122.946C48.1241 124.324 49.0645 125.701 50.0722 127.044C51.5837 131.377 54.9427 134.938 59.1749 137.356C64.6166 140.447 74.5255 144.948 78.5226 137.591C82.4526 130.437 76.5744 123.35 70.9649 119.52Z" fill="#E02D72"/>
<path d="M88.8152 72.1931C88.0092 70.648 86.0274 70.0435 84.4822 70.5809C83.2395 70.5472 81.8959 70.7824 80.4515 71.4542C72.1212 75.149 70.2067 85.6627 68.4264 93.5561C65.9071 104.742 64.2612 116.263 66.0415 127.717C66.243 129.06 67.0492 129.9 67.9897 130.303C67.9226 131.58 67.8889 132.856 67.9226 134.133C67.956 136.249 69.5012 137.156 71.08 137.122C71.6845 137.391 72.2556 137.525 72.7594 137.559C73.4312 138.096 74.2711 138.398 75.2451 138.298C85.5907 137.055 84.8181 123.72 86.464 116.095C87.5389 111.056 89.0504 106.219 90.8978 101.416C92.611 96.9152 94.3911 92.3134 94.6599 87.443C94.9285 82.5724 92.9469 75.3842 88.8152 72.1931Z" fill="#E02D72"/>
<path d="M37.4209 104.304C37.7568 104.237 38.059 104.136 38.3613 103.968C39.772 103.229 40.3431 101.785 40.6119 100.273C40.9813 98.1238 40.7463 95.9068 40.6119 93.7235C39.7386 92.3128 38.6972 91.0028 37.253 90.0958C36.9842 90.398 36.749 90.734 36.4804 91.0364L37.253 93.018C36.0438 91.6746 34.5994 90.499 33.0542 89.5249C31.5427 88.5843 29.4938 87.879 28.3517 88.9538C27.2432 89.995 27.915 91.9432 28.7212 93.4547C30.9716 97.452 34.0283 100.979 37.4209 104.304Z" fill="#EDD5BE"/>
<path d="M9.10568 90.8684C9.20644 89.9277 9.30721 88.9537 9.84465 88.2147C10.4829 87.3414 11.6249 86.9047 12.2967 86.0651C13.17 85.0237 13.2036 83.5122 13.909 82.3702C14.5472 81.2952 15.6893 80.5899 16.9321 80.4892C18.1749 80.3884 19.4177 80.9258 20.1902 81.8663C21.5675 83.5458 21.3323 86.0314 20.7613 88.114C19.9887 91.0362 18.8131 93.8243 17.2344 96.4106C16.932 96.9144 16.5962 97.4184 16.1259 97.7206C15.1854 98.2917 14.0098 97.9892 12.9685 97.687C11.5577 97.2839 9.3408 97.1495 8.76979 95.5707C8.29953 94.2273 9.10568 92.2455 9.10568 90.8684Z" fill="#EDD5BE"/>
<path d="M66.3111 54.0874C58.9885 53.4156 51.5317 53.9867 44.1755 53.2812C43.6381 53.2141 42.9328 53.7515 42.8655 54.2889C42.5969 56.0356 42.5633 55.9012 42.7648 57.6479C42.7984 58.0174 42.9999 58.3197 43.2351 58.5212C43.4029 63.7277 43.974 68.9004 44.8137 74.0396C45.5528 78.5407 46.0229 83.6463 48.3407 87.6436C48.7437 88.3488 49.7178 88.2817 50.1544 87.6436C54.1517 81.6981 58.2832 75.8199 62.5491 70.0425C64.5644 67.3218 66.7143 64.6682 68.6961 61.9138C69.5694 60.7045 71.4839 58.8908 71.2824 57.1106C70.9129 54.5241 68.4944 54.2889 66.3111 54.0874Z" fill="#E02D72"/>
<defs>
<linearGradient id="paint0_linear_24_275" x1="16.4314" y1="362.391" x2="132.79" y2="367.215" gradientUnits="userSpaceOnUse">
<stop stop-color="white"/>
<stop offset="1" stop-color="white"/>
</linearGradient>
<linearGradient id="paint1_linear_24_275" x1="16.4314" y1="362.391" x2="132.79" y2="367.215" gradientUnits="userSpaceOnUse">
<stop/>
<stop offset="1"/>
</linearGradient>
</defs>
</svg>
