<svg width="170" height="370" viewBox="0 0 170 370" fill="none" xmlns="http://www.w3.org/2000/svg">
<path d="M54.6463 165.14C59.7198 162.084 66.3212 163.71 69.3771 168.803C72.4329 173.877 70.807 180.478 65.714 183.534C60.6404 186.59 54.039 184.964 50.9831 179.871C47.9273 174.817 49.5727 168.215 54.6463 165.14Z" fill="#FCC9A7"/>
<path d="M66.8077 165.904C66.4551 165.63 47.6106 143.494 47.6106 143.494L39.9122 152.819L56.9153 174.347L66.8077 165.904Z" fill="#FCC9A7"/>
<path d="M50.9206 338.481L46.1214 360.401L30.9596 358.129L35.8568 336.503L50.9206 338.481Z" fill="#FCC9A7"/>
<path d="M118.89 336.523L119.066 358.971L103.807 360.107L103.767 337.933L118.89 336.523Z" fill="#FCC9A7"/>
<path d="M48.0387 356.836C47.7253 355.915 46.6087 355.524 45.8056 356.111C44.2385 357.247 41.4764 358.58 37.4803 358.109C33.3275 357.62 31.8387 355.426 31.3294 353.859C31.0552 353.036 30.1737 352.605 29.3705 352.918L3.65046 363.222C2.08335 363.849 0.829621 365.063 0.183189 366.611C-0.443654 368.061 0.614201 369.686 2.2009 369.686L45.9035 370C47.6273 370.019 48.9985 368.589 48.9202 366.866L48.548 358.423C48.548 358.286 48.5088 358.149 48.4697 358.011L48.0387 356.836Z" fill="#0C0C0C"/>
<path d="M102.257 356.836C102.57 355.915 103.707 355.524 104.49 356.111C106.057 357.247 108.819 358.58 112.815 358.109C116.968 357.62 118.437 355.426 118.966 353.859C119.241 353.036 120.122 352.605 120.925 352.918L146.645 363.222C148.212 363.849 149.466 365.063 150.113 366.611C150.739 368.061 149.682 369.686 148.095 369.686L104.392 370C102.668 370.019 101.297 368.589 101.376 366.866L101.748 358.423C101.748 358.286 101.787 358.149 101.826 358.011L102.257 356.836Z" fill="#0C0C0C"/>
<path d="M102.063 55.0903L88.4876 56.2656L66.9005 68.4303V154.935H124.511V68.4303L102.063 55.0903Z" fill="#54585A"/>
<path d="M98.3444 63.8073H94.4464C90.4111 63.8073 87.1398 60.5359 87.1398 56.5006V41.8482H105.632V56.5006C105.651 60.5359 102.38 63.8073 98.3444 63.8073Z" fill="#FCC9A7"/>
<path d="M87.1398 49.3115C87.1398 49.3115 90.0193 55.0902 96.562 55.0902C103.105 55.0902 105.632 49.194 105.632 49.194L87.1398 49.3115Z" fill="#F4BE9A"/>
<path d="M96.6009 51.7014H95.9937C86.5714 51.7014 78.8141 44.2577 78.4419 34.8354L78.1091 25.4524C77.7173 15.4817 85.6898 7.19565 95.6605 7.19565H96.9337C104.475 7.19565 114.877 15.4817 114.485 25.4524L114.152 34.8354C113.78 44.2577 106.023 51.7014 96.6009 51.7014Z" fill="#FCC9A7"/>
<path d="M83.8259 32.5629C84.0414 35.7363 81.6516 38.4787 78.4782 38.6942C75.3048 38.9097 72.5623 36.5198 72.3469 33.3464C72.1314 30.173 74.5212 27.4306 77.6946 27.2151C80.868 27.0192 83.6105 29.4091 83.8259 32.5629Z" fill="#FCC9A7"/>
<path d="M120.226 32.5629C120.441 35.7363 118.052 38.4787 114.878 38.6942C111.705 38.9097 108.962 36.5198 108.747 33.3464C108.531 30.173 110.921 27.4306 114.095 27.2151C117.268 27.0192 120.01 29.4091 120.226 32.5629Z" fill="#FCC9A7"/>
<path d="M66.9023 154.523L31.0743 344.985L51.6622 344.789L104.043 154.895L66.9023 154.523Z" fill="#0C0C0C"/>
<path d="M124.517 154.935L122.264 345.181H100.501L91.8228 156.129L124.517 154.935Z" fill="#0C0C0C"/>
<path d="M66.9 68.4299C66.9 68.4299 18.7899 97.4606 7.09533 117.598C4.80344 121.535 7.78088 126.628 11.8162 128.724C16.2824 131.055 21.7869 129.469 24.353 125.14L68.8589 99.3215C68.8785 99.3215 66.9 77.1469 66.9 68.4299Z" fill="#54585A"/>
<path d="M77.1116 14.7959L78.4634 29.2132H80.6376L80.912 21.6519C80.912 21.6519 82.0479 18.7528 87.1215 12.5236C87.1215 12.5236 90.432 20.9859 110.941 19.3405L112.137 28.8998L114.252 28.6647L115.369 18.4002C116.113 14.933 116.368 11.7008 115.741 8.21403C114.467 1.16205 108.728 -2.73613 92.1558 2.23944C90.7846 2.6508 93.5858 2.37656 92.1558 2.23944C87.4153 1.71054 74.9176 1.65177 77.1116 14.7959Z" fill="#2E2A33"/>
<path d="M101.513 153.563L96.851 203.436C96.6747 205.317 97.948 207.021 99.8089 207.373L157.008 218.304C159.104 218.715 161.103 217.227 161.337 215.111L166.568 167.707C166.764 165.865 165.569 164.161 163.747 163.73L105.979 150.331C103.825 149.822 101.729 151.35 101.513 153.563Z" fill="#AFAFAF"/>
<path d="M104.688 154.445L100.027 204.317C99.8502 206.198 101.123 207.902 102.984 208.255L160.184 219.185C162.28 219.577 164.278 218.108 164.513 215.992L169.743 168.588C169.939 166.747 168.744 165.042 166.922 164.611L109.155 151.213C107.02 150.703 104.904 152.231 104.688 154.445Z" fill="#D1D1D1"/>
<path d="M134.466 205.356C140.147 207.04 143.398 213.015 141.714 218.696C140.029 224.376 134.055 227.628 128.374 225.963C122.693 224.278 119.441 218.304 121.106 212.623C122.81 206.923 128.766 203.671 134.466 205.356Z" fill="#FCC9A7"/>
<path d="M142.122 214.837C142.083 214.386 140.241 184.494 140.241 184.494L130.074 186.335L131.426 211.82L142.122 214.837Z" fill="#FCC9A7"/>
<path d="M124.51 68.4299C124.51 68.4299 139.907 79.4584 140.886 95.1687L145.705 131.898C145.979 134.053 146.097 136.207 146.018 138.382L144.157 194.249H123.021L122.629 133.778L124.51 68.4299Z" fill="#54585A"/>
<path d="M90.1151 55.0903C88.4696 56.2852 80.5361 60.7514 80.5361 60.7514C80.5361 60.7514 80.7516 71.9171 97.5588 71.016C112.348 70.2324 112.25 61.1628 112.25 61.1628L102.045 55.0903H90.1151Z" fill="#FCC9A7"/>
<path d="M30.8017 110.35L59.5581 156.306L45.9241 169.215L7.17749 123.984L30.8017 110.35Z" fill="#54585A"/>
<path d="M122.611 154.327V133.759L117.831 96.2464" stroke="#424647" stroke-width="0.7693" stroke-miterlimit="10" stroke-linecap="round" stroke-linejoin="round"/>
</svg>
