<?xml version="1.0" encoding="UTF-8"?>
<svg id="Layer_2" data-name="Layer 2" xmlns="http://www.w3.org/2000/svg" viewBox="0 0 244.75 215.94">
  <defs>
    <style>
      .cls-1 {
        fill: #f1f2f2;
      }
    </style>
  </defs>
  <g id="Layer_1-2" data-name="Layer 1">
    <g>
      <g>
        <path class="cls-1" d="M127.3,53.24c-1.68,0-3.05,1.37-3.05,3.05v6.24c0,1.68,1.37,3.05,3.05,3.05s3.05-1.37,3.05-3.05v-6.24c0-1.68-1.37-3.05-3.05-3.05Z"/>
        <path class="cls-1" d="M147.78,62.52v-6.24c0-1.68-1.37-3.05-3.05-3.05s-3.05,1.37-3.05,3.05v6.24c0,1.68,1.37,3.05,3.05,3.05s3.05-1.37,3.05-3.05Z"/>
        <path class="cls-1" d="M200.69,80.14c4.51-4.69,3.6-12.26-1.62-15.86l-3.42-2.34c-3.78-2.52-5.41-7.39-4.15-11.72l1.08-3.96c1.8-6.13-2.34-12.44-8.65-13.52l-4.15-.72c-4.51-.72-8.11-4.15-8.83-8.65l-.72-4.15c-1.08-6.31-7.39-10.27-13.52-8.47l-3.96,1.26c-4.33,1.26-9.19-.36-11.71-3.97l-2.52-3.6c-3.78-5.23-11.17-5.95-15.86-1.62l-3.06,2.88c-3.42,3.06-8.29,3.78-12.44,1.44l-3.6-1.98c-5.59-3.06-12.62-.54-15.14,5.41l-1.62,3.97c-1.62,4.33-5.95,7.03-10.45,6.67l-4.15-.18c-6.49-.36-11.71,5.05-11.17,11.35l.36,4.15c.36,4.51-2.34,8.83-6.49,10.63l-3.78,1.62c-5.95,2.52-8.29,9.55-5.23,15.14l2.16,3.6c2.34,3.97,1.8,9.01-1.26,12.44l-2.7,3.06c-4.33,4.87-3.42,12.26,1.98,15.86l3.42,2.34c3.79,2.52,5.41,7.39,4.15,11.71l-1.62,4.15c-1.8,6.13,2.34,12.44,8.65,13.52l4.15,.72c4.51,.72,8.11,4.15,8.83,8.65l.72,4.15c1.08,6.31,7.39,10.27,13.52,8.47l3.97-1.26c4.33-1.26,9.19,.36,11.71,3.97l2.52,3.42c3.79,5.23,11.17,5.95,15.86,1.62l3.06-2.88c3.42-3.06,8.29-3.78,12.44-1.44l3.6,1.98c5.59,3.06,12.62,.54,15.14-5.41l1.62-3.97c1.62-4.33,5.95-7.03,10.45-6.67l4.15,.18c6.49,.36,11.71-5.05,11.17-11.35l-.18-4.15c-.36-4.51,2.34-8.83,6.49-10.63l3.78-1.62c5.95-2.52,8.29-9.55,5.23-15.14l-2.16-3.6c-2.34-3.97-1.8-9.01,1.26-12.44l2.7-3.06Zm-37.87,34.93c-1.57,.53-2.17,.25-2.69-1.34-1.43-4.37-4.21-7.68-8.34-9.79-.86-.43-1.73-1.03-3.12-.45,4.06,3.05,6.7,6.92,7.88,11.73,.34,1.39,.52,2.82,.94,4.19,.8,2.76,2.3,3.51,4.96,2.55,.45-.16,.78-.5,1.12,.04,.34,.57,.3,1.23,.13,1.84-.5,1.85-3.49,3.76-6.03,3.9-2.55,.14-4.67-.93-6.26-2.73-2.51-2.87-3.72-7.52-6.49-12.14-1.03-1.73-3.44-4.28-4.83-5.72-1.07-1.1-2.34-1.96-3.74-2.57-.73-.32-1.51-.57-2.3-.77-.59-.14-1.96-.04-2.44-.36,.86,.57,1.55,.98,2.19,1.44,6.01,4.19,7.54,10.93,3.96,17.33-1.02,1.8-2.12,3.56-2.98,5.44-.52,1.12-.75,2.5,.57,3.42,1.19,.84,2.21,.25,3.14-.59,.52-.48,1.07-1.16,1.82-.48,.59,.57,.3,1.37,.04,2.03-1.03,2.62-3.07,3.9-5.81,4.08-3.78,.23-6.7-1.3-8.06-4.24-1.02-2.23-1.3-4.65-1.6-7.06-.45-3.56-1.48-7.66-4.15-10.27-1.84-1.76-4.22-1.94-6.56-1.39-1.76,.43-3.49,1.28-4.88,2.23-1.89,1.27-3.48,3.03-4.35,5.15-.45,1.05-.73,2.35-.3,3.48,.34,.93,1.25,1.57,2.12,1.94,1.11,.5,2.3,.41,3.46,.3,.59-.04,1.35-.39,1.66,.43,.25,.66-.3,1.18-.71,1.64-1.11,1.3-2.6,1.84-4.26,2.07-5.22,.68-9.77-1.44-11.87-5.56-2.51-4.92-1.62-11.78,2.03-15.63,.59-.64,1.3-1.16,2.39-2.12-6.52,2-10.41,7.99-9.8,14.3,.29,2.89,.25,2.92-2.55,2.03-7.13-2.26-11.3-9.73-9.77-17.66,.5-2.66,1.18-5.26,1.89-7.86,.71-2.66,1.12-5.26,.05-7.93-.73-1.85,.11-2.48,1.93-2.23,2.67,.37,4.22,1.87,4.69,4.78,.45,2.66,.52,5.38,1.85,7.82,.84,1.51,2.3,2.69,3.98,3.14,1.73,.45,3.62-.39,4.99-1.46,.53-.43,1.03-.91,1.5-1.43,3.05-3.37,3.89-7.27,2.75-11.68-1.07-4.19-3.35-7.95-5.38-11.73-5.15-9.63-6.97-19.82-1.21-29.84,6.88-11.94,17.82-17.36,31.37-16.68,13.76,.69,24.35,7.15,29.53,20.3,3.94,10.04,1.3,19.62-4.14,28.52-1.41,2.28-3.21,4.37-4.28,6.84-.69,1.64-.82,3.44-.5,5.19,.89,4.67,5.08,8.86,10.07,8,2.67-.46,4.51-3.17,4.56-6.81,.02-1.27-.14-2.51-.09-3.76,.12-2.35,3.74-5.42,6.04-5.26,1.07,.09,1.19,.64,.82,1.46-1.59,3.56-.16,6.65,1.46,9.71,1.27,2.41,2.23,4.9,2.32,7.68,.2,6.04-3.01,10.57-8.7,12.51Z"/>
      </g>
      <g>
        <path class="cls-1" d="M19.29,208.85v6.39H0v-31.99H6.43v25.6h12.86Z"/>
        <path class="cls-1" d="M24.93,183.25h6.43v31.99h-6.43v-31.99Z"/>
        <path class="cls-1" d="M64.68,183.17v32.67h-.3l-18.99-18.48v17.92h-6.43v-32.63h.32l18.95,18.44v-17.92h6.45Z"/>
        <path class="cls-1" d="M88.4,215.24l-9.72-14.01v14.01h-6.41v-31.99h6.41v13.83l8.99-13.83h7.42l-10.26,15.66,11.39,16.33h-7.82Z"/>
        <path class="cls-1" d="M121.55,189.62h-7.86v25.62h-6.45v-25.62h-7.88v-6.37h22.19v6.37Z"/>
        <path class="cls-1" d="M124.22,199.28c0-9.19,7.48-16.69,16.63-16.69s16.65,7.5,16.65,16.69-7.5,16.57-16.67,16.57-16.61-7.46-16.61-16.57Zm26.77-.04c0-5.6-4.56-10.16-10.16-10.16s-10.12,4.56-10.12,10.16,4.54,10.1,10.12,10.1,10.16-4.54,10.16-10.1Z"/>
        <path class="cls-1" d="M163.7,183.25h11.23c6.19,0,11.25,4.86,11.25,10.82s-5.06,10.78-11.25,10.78h-4.8v10.4h-6.43v-31.99Zm16.06,10.76c0-2.42-2.16-4.39-4.82-4.39h-4.8v8.85l4.8,.02c2.66,.02,4.82-2,4.82-4.49Z"/>
        <path class="cls-1" d="M191.55,203.41v-20.16h6.47v20.14c0,3.49,2.76,6.03,5.85,6.03s5.89-2.56,5.89-6.03v-20.14h6.47v20.16c0,7.24-5.54,12.52-12.34,12.52s-12.34-5.28-12.34-12.52Z"/>
        <path class="cls-1" d="M221.89,209.72l5.14-3.61c1.41,2.26,3.45,3.29,6.21,3.29,3.02,0,5.04-1.23,5.04-2.94,0-2.34-3.83-4.19-7.18-5.85-3.59-1.79-7.54-3.75-7.54-8.85,0-5.54,4.68-9.19,10.56-9.19,4.37,0,7.98,1.81,9.43,5.68l-4.74,3.31c-.95-1.91-2.8-2.68-4.58-2.68-2.4,0-4.19,1.39-4.19,3.04,0,1.91,2.42,2.56,6.09,4.29,5.3,2.5,8.63,5.2,8.63,10.12,0,5.83-4.76,9.55-11.61,9.55-5.24,0-9.11-2.18-11.25-6.15Z"/>
      </g>
    </g>
  </g>
</svg>